<?xml version="1.0" encoding="UTF-8"?>
<!DOCTYPE svg PUBLIC "-//W3C//DTD SVG 1.1//EN" "http://www.w3.org/Graphics/SVG/1.1/DTD/svg11.dtd">
<!-- Creator: CorelDRAW 2021.5 -->
<svg xmlns="http://www.w3.org/2000/svg" xml:space="preserve" width="26.7315in" height="19.5353in" version="1.1" style="shape-rendering:geometricPrecision; text-rendering:geometricPrecision; image-rendering:optimizeQuality; fill-rule:evenodd; clip-rule:evenodd"
viewBox="0 0 8774.09 6412.09"
 xmlns:xlink="http://www.w3.org/1999/xlink"
 xmlns:xodm="http://www.corel.com/coreldraw/odm/2003">
 <defs>
  <style type="text/css">
   <![CDATA[
    .str5 {stroke:#5386BF;stroke-width:3.42;stroke-linecap:round;stroke-miterlimit:2.61313}
    .str6 {stroke:#CC6969;stroke-width:3.42;stroke-linecap:round;stroke-miterlimit:2.61313}
    .str7 {stroke:#DE6767;stroke-width:3.42;stroke-linecap:round;stroke-miterlimit:2.61313}
    .str2 {stroke:#F49494;stroke-width:3.42;stroke-linecap:round;stroke-miterlimit:2.61313}
    .str3 {stroke:#F77B7B;stroke-width:3.42;stroke-linecap:round;stroke-miterlimit:2.61313}
    .str0 {stroke:#8EEAF6;stroke-width:13.69;stroke-linecap:round;stroke-miterlimit:2.61313}
    .str1 {stroke:#F77B7B;stroke-width:5.13;stroke-linecap:round;stroke-miterlimit:2.61313}
    .str4 {stroke:white;stroke-width:6.84;stroke-linecap:round;stroke-miterlimit:2.61313}
    .fil17 {fill:none}
    .fil13 {fill:none}
    .fil54 {fill:#02B596}
    .fil53 {fill:#02D3AF}
    .fil3 {fill:#141A2B}
    .fil4 {fill:#181F33}
    .fil26 {fill:#222D4E}
    .fil5 {fill:#283046}
    .fil88 {fill:#2C272E}
    .fil39 {fill:#2E2E2E}
    .fil97 {fill:#33373E}
    .fil37 {fill:#383838}
    .fil81 {fill:#391B0B}
    .fil64 {fill:#413C75}
    .fil22 {fill:#422851}
    .fil45 {fill:#424242}
    .fil99 {fill:#42474F}
    .fil36 {fill:#4B4B4B}
    .fil75 {fill:#518DF8}
    .fil71 {fill:#524D87}
    .fil46 {fill:#5E54C7}
    .fil30 {fill:#6A5EE3}
    .fil32 {fill:#7367F0}
    .fil59 {fill:#7569EC}
    .fil83 {fill:#7A3636}
    .fil82 {fill:#81411E}
    .fil9 {fill:#8478FF}
    .fil41 {fill:#877BFF}
    .fil21 {fill:#91D6FF}
    .fil80 {fill:#92691F}
    .fil49 {fill:#96EFFA}
    .fil101 {fill:#9E5229}
    .fil20 {fill:#BFE7FF}
    .fil10 {fill:#C7C1FF}
    .fil47 {fill:#CBC6FF}
    .fil78 {fill:lightgrey}
    .fil6 {fill:#D4EFFF}
    .fil79 {fill:#DBDBDB}
    .fil89 {fill:#E5AA41}
    .fil18 {fill:#E7E4FF}
    .fil77 {fill:#E9E9E9}
    .fil66 {fill:#EA5455}
    .fil63 {fill:#EC7AA5}
    .fil62 {fill:#EEDFE8}
    .fil40 {fill:#F28585}
    .fil43 {fill:#F8C5C5}
    .fil35 {fill:#F8CFCF}
    .fil103 {fill:#FF9F43}
    .fil94 {fill:#FFB66F}
    .fil69 {fill:#FFE4F4}
    .fil95 {fill:#FFEDC2}
    .fil104 {fill:#FFF6E1}
    .fil55 {fill:#02D3AF;fill-rule:nonzero}
    .fil48 {fill:#6182EC;fill-rule:nonzero}
    .fil50 {fill:#74CFDB;fill-rule:nonzero}
    .fil52 {fill:#7AD2DD;fill-rule:nonzero}
    .fil11 {fill:#8478FF;fill-rule:nonzero}
    .fil7 {fill:#91D6FF;fill-rule:nonzero}
    .fil56 {fill:#C2FFF4;fill-rule:nonzero}
    .fil51 {fill:#EAEFFF;fill-rule:nonzero}
    .fil102 {fill:#FB9934;fill-rule:nonzero}
    .fil76 {fill:white;fill-rule:nonzero}
    .fil12 {fill:white;fill-opacity:0.000000}
    .fil38 {fill:white;fill-opacity:0.054902}
    .fil72 {fill:white;fill-opacity:0.054902}
    .fil1 {fill:#00CFE8;fill-opacity:0.070588}
    .fil2 {fill:#00CFE8;fill-opacity:0.074510}
    .fil0 {fill:#7367F0;fill-rule:nonzero;fill-opacity:0.086275}
    .fil42 {fill:black;fill-opacity:0.160784}
    .fil84 {fill:white;fill-opacity:0.192157}
    .fil85 {fill:white;fill-rule:nonzero;fill-opacity:0.192157}
    .fil33 {fill:black;fill-opacity:0.200000}
    .fil31 {fill:black;fill-opacity:0.301961}
    .fil8 {fill:#C7C1FF;fill-opacity:0.454902}
    .fil27 {fill:white;fill-opacity:0.541176}
    .fil19 {fill:#8C81FF;fill-opacity:0.576471}
    .fil60 {fill:#8175FF}
    .fil16 {fill:#8EEAF6}
    .fil14 {fill:#CEF9FF}
    .fil15 {fill:#8EEAF6;fill-rule:nonzero}
    .fil57 {fill:url(#id4)}
    .fil34 {fill:url(#id5)}
    .fil65 {fill:url(#id6)}
    .fil44 {fill:url(#id7)}
    .fil86 {fill:url(#id8)}
    .fil58 {fill:url(#id9)}
    .fil23 {fill:url(#id10)}
    .fil25 {fill:url(#id11)}
    .fil96 {fill:url(#id12)}
    .fil70 {fill:url(#id13)}
    .fil67 {fill:url(#id14)}
    .fil91 {fill:url(#id15)}
    .fil61 {fill:url(#id16)}
    .fil90 {fill:url(#id17)}
    .fil98 {fill:url(#id18)}
    .fil29 {fill:url(#id19)}
    .fil92 {fill:url(#id20)}
    .fil24 {fill:url(#id21)}
    .fil28 {fill:url(#id22)}
    .fil93 {fill:url(#id23)}
    .fil100 {fill:url(#id24)}
    .fil74 {fill:url(#id25)}
    .fil105 {fill:url(#id26)}
    .fil87 {fill:url(#id27)}
    .fil73 {fill:url(#id28)}
    .fil68 {fill:url(#id29)}
   ]]>
  </style>
   <clipPath id="id0">
    <path d="M1059.22 1951.96c0,-32.56 26.38,-58.94 58.94,-58.94l1873.66 0c32.55,0 58.94,26.38 58.94,58.94l0 1563.99c0,32.55 -26.39,58.94 -58.94,58.94l-1873.66 0c-32.55,0 -58.94,-26.38 -58.94,-58.94l0 -1563.99z"/>
   </clipPath>
   <clipPath id="id1">
    <path d="M1059.22 1951.96c0,-32.56 26.38,-58.94 58.94,-58.94l1873.66 0c32.55,0 58.94,26.38 58.94,58.94l0 1563.99c0,32.55 -26.39,58.94 -58.94,58.94l-1873.66 0c-32.55,0 -58.94,-26.38 -58.94,-58.94l0 -1563.99z"/>
   </clipPath>
   <clipPath id="id2">
    <path d="M1190.87 5537.45c-1.22,-13.89 9.73,-25.83 23.67,-25.83l361.32 0c13.93,0 24.88,11.94 23.67,25.83l-69.63 796.77c-1.07,12.27 -11.35,21.69 -23.67,21.69l-222.06 0c-12.33,0 -22.61,-9.42 -23.68,-21.69l-69.62 -796.77z"/>
   </clipPath>
   <clipPath id="id3">
    <path d="M1190.87 5537.45c-1.22,-13.89 9.73,-25.83 23.67,-25.83l361.32 0c13.93,0 24.88,11.94 23.67,25.83l-69.63 796.77c-1.07,12.27 -11.35,21.69 -23.67,21.69l-222.06 0c-12.33,0 -22.61,-9.42 -23.68,-21.69l-69.62 -796.77z"/>
   </clipPath>
  <linearGradient id="id4" gradientUnits="userSpaceOnUse" x1="1486.62" y1="4729.28" x2="1486.62" y2="4913.77">
   <stop offset="0" style="stop-opacity:1; stop-color:#FE62BE"/>
   <stop offset="1" style="stop-opacity:1; stop-color:#FDB3A8"/>
  </linearGradient>
  <linearGradient id="id5" gradientUnits="userSpaceOnUse" x1="6459.55" y1="4373.69" x2="6459.55" y2="4574.69">
   <stop offset="0" style="stop-opacity:1; stop-color:#FDC6C6"/>
   <stop offset="1" style="stop-opacity:1; stop-color:#FAB2B2"/>
  </linearGradient>
  <linearGradient id="id6" gradientUnits="userSpaceOnUse" xlink:href="#id5" x1="7765.3" y1="3903.69" x2="7708.15" y2="4620.89">
  </linearGradient>
  <linearGradient id="id7" gradientUnits="userSpaceOnUse" x1="2840.88" y1="2381.14" x2="2723" y2="2392.92">
   <stop offset="0" style="stop-opacity:1; stop-color:#4D63A0"/>
   <stop offset="1" style="stop-opacity:1; stop-color:#222735"/>
  </linearGradient>
  <linearGradient id="id8" gradientUnits="userSpaceOnUse" x1="3412.61" y1="4603.44" x2="3548.89" y2="4896.82">
   <stop offset="0" style="stop-opacity:1; stop-color:#FDC6C6"/>
   <stop offset="1" style="stop-opacity:1; stop-color:#A47070"/>
  </linearGradient>
  <linearGradient id="id9" gradientUnits="userSpaceOnUse" xlink:href="#id4" x1="1201.76" y1="4576.6" x2="1224.26" y2="4771.88">
  </linearGradient>
  <linearGradient id="id10" gradientUnits="userSpaceOnUse" x1="6518.66" y1="3667.03" x2="6389" y2="4247.78">
   <stop offset="0" style="stop-opacity:1; stop-color:#FFAFAF"/>
   <stop offset="1" style="stop-opacity:1; stop-color:#F07777"/>
  </linearGradient>
  <linearGradient id="id11" gradientUnits="userSpaceOnUse" xlink:href="#id5" x1="5952.85" y1="5952.83" x2="5941.07" y2="6306.47">
  </linearGradient>
  <linearGradient id="id12" gradientUnits="userSpaceOnUse" xlink:href="#id5" x1="5410.61" y1="5846.74" x2="5375.25" y2="6188.58">
  </linearGradient>
  <linearGradient id="id13" gradientUnits="userSpaceOnUse" xlink:href="#id5" x1="7401.16" y1="5955.28" x2="7378.1" y2="6332.47">
  </linearGradient>
  <linearGradient id="id14" gradientUnits="userSpaceOnUse" xlink:href="#id10" x1="8404.71" y1="3619.8" x2="8275.05" y2="4200.56">
  </linearGradient>
  <linearGradient id="id15" gradientUnits="userSpaceOnUse" x1="6495.09" y1="4632.6" x2="6495.09" y2="4667.96">
   <stop offset="0" style="stop-opacity:1; stop-color:#9FF6EC"/>
   <stop offset="1" style="stop-opacity:1; stop-color:#7D9DFF"/>
  </linearGradient>
  <linearGradient id="id16" gradientUnits="userSpaceOnUse" xlink:href="#id5" x1="7815.32" y1="5929.25" x2="7803.53" y2="6282.89">
  </linearGradient>
  <linearGradient id="id17" gradientUnits="userSpaceOnUse" xlink:href="#id8" x1="4770.15" y1="4050.4" x2="4736.44" y2="4420.87">
  </linearGradient>
  <linearGradient id="id18" gradientUnits="userSpaceOnUse" xlink:href="#id5" x1="6166.71" y1="5846.74" x2="6134.77" y2="6153.22">
  </linearGradient>
  <linearGradient id="id19" gradientUnits="userSpaceOnUse" xlink:href="#id5" x1="5525.04" y1="4009.8" x2="5503.14" y2="4349.8">
  </linearGradient>
  <linearGradient id="id20" gradientUnits="userSpaceOnUse" xlink:href="#id15" x1="6575.12" y1="4066.78" x2="6575.12" y2="4632.6">
  </linearGradient>
  <linearGradient id="id21" gradientUnits="userSpaceOnUse" xlink:href="#id5" x1="6481.34" y1="3559.91" x2="6414.67" y2="3948.91">
  </linearGradient>
  <linearGradient id="id22" gradientUnits="userSpaceOnUse" x1="5607.16" y1="6367.99" x2="5092.26" y2="5316.13">
   <stop offset="0" style="stop-opacity:1; stop-color:#28324F"/>
   <stop offset="1" style="stop-opacity:1; stop-color:#222735"/>
  </linearGradient>
  <linearGradient id="id23" gradientUnits="userSpaceOnUse" x1="4957.52" y1="4343.94" x2="5188.88" y2="4884.98">
   <stop offset="0" style="stop-opacity:1; stop-color:#FDC6C6"/>
   <stop offset="1" style="stop-opacity:1; stop-color:#FFCCA1"/>
  </linearGradient>
  <linearGradient id="id24" gradientUnits="userSpaceOnUse" xlink:href="#id23" x1="5383.14" y1="3559.91" x2="5349.1" y2="4054.99">
  </linearGradient>
  <linearGradient id="id25" gradientUnits="userSpaceOnUse" xlink:href="#id15" x1="6898.98" y1="3940.5" x2="7038.51" y2="4499.96">
  </linearGradient>
  <linearGradient id="id26" gradientUnits="userSpaceOnUse" xlink:href="#id23" x1="6304.05" y1="4049.67" x2="6269.4" y2="4680.05">
  </linearGradient>
  <linearGradient id="id27" gradientUnits="userSpaceOnUse" xlink:href="#id8" x1="3766.24" y1="3430.24" x2="3720.85" y2="3984.27">
  </linearGradient>
  <linearGradient id="id28" gradientUnits="userSpaceOnUse" xlink:href="#id5" x1="8699.22" y1="4303.16" x2="8675.68" y2="4751.19">
  </linearGradient>
  <linearGradient id="id29" gradientUnits="userSpaceOnUse" xlink:href="#id5" x1="8367.11" y1="3512.76" x2="8300.44" y2="3889.97">
  </linearGradient>
 </defs>
 <g id="Layer_x0020_1">
  <metadata id="CorelCorpID_0Corel-Layer"/>
  <g id="Shape">
   <g id="Group_x0020_59">
    <path id="Path" class="fil0" d="M7936.97 1936.13c110.54,-147.56 319.84,-177.63 467.49,-67.16 146.17,109.37 177.12,315.48 70.46,462.77l-3.27 4.44 -875.83 1169.19c-111.55,148.92 -318.73,186.67 -475.51,87.56l-4.73 -3.04 -551.36 -360.66 -555.91 809.17c-103.36,150.45 -308.15,189.8 -459.76,89.33l-4.58 -3.09c-150.53,-103.29 -189.89,-307.97 -89.36,-459.5l3.09 -4.58 728.47 -1060.36c108.52,-157.97 322.37,-201.5 483.86,-99.51l4.88 3.14 561.61 367.36 700.46 -935.08z"/>
    <path id="Path_2" class="fil0" d="M5070.16 38.83c28.03,-40.72 83.86,-51.07 124.69,-23.13 40.3,27.58 50.95,82.15 24.29,122.71l-1.09 1.61 -218.26 317.09c-32,44.69 -93.91,55.45 -139.13,24.54l-1.61 -1.12 -125.35 -89.24 -135.87 215.23c-26.04,41.26 -80.32,54.02 -122.03,29.06l-1.64 -1.01c-41.38,-25.97 -54.19,-80.09 -29.14,-121.68l1 -1.63 180.18 -285.43c29.68,-47.02 91.97,-61.15 139.13,-31.55l2.46 1.6 2.43 1.67 127.98 91.12 171.96 -249.83z"/>
    <path id="__x002b_" class="fil1" d="M7454.67 1524.26c16.27,0 29.47,-13.19 29.47,-29.47l0 -211.91 212.05 0c16.27,0 29.47,-13.19 29.47,-29.47l0 -102.02c0,-16.27 -13.21,-29.47 -29.47,-29.47l-212.05 0 0 -213.47c0,-16.27 -13.2,-29.47 -29.47,-29.47l-103.69 0c-16.28,0 -29.47,13.19 -29.47,29.47l0 213.47 -212.05 0c-16.27,0 -29.47,13.2 -29.47,29.47l0 102.02c0,16.28 13.19,29.47 29.47,29.47l212.05 0 0 211.91c0,16.28 13.19,29.47 29.47,29.47l103.69 0z"/>
    <path id="Oval" class="fil2" d="M1079.81 235.76c596.35,0 1079.81,483.16 1079.81,1079.18 0,596.01 -483.46,1079.17 -1079.81,1079.17 -596.36,0 -1079.81,-483.16 -1079.81,-1079.17 0,-596.02 483.44,-1079.18 1079.81,-1079.18zm0 534.03c-301.26,0 -545.47,244.07 -545.47,545.16 0,301.07 244.21,545.15 545.47,545.15 301.26,0 545.47,-244.08 545.47,-545.15 0,-301.09 -244.21,-545.16 -545.47,-545.16z"/>
   </g>
  </g>
  <path id="Rectangle" class="fil3" d="M714.31 1190.57c0,-104.16 84.44,-188.6 188.61,-188.6l5541.77 0c104.17,0 188.6,84.44 188.6,188.6l0 2407.35c0,104.17 -84.44,188.6 -188.6,188.6l-5541.77 0c-104.16,0 -188.61,-84.44 -188.61,-188.6l0 -2407.35z"/>
  <path id="Rectangle_2" class="fil4" d="M803.32 1190.57c0,-104.16 84.44,-188.6 188.61,-188.6l5452.76 0c104.17,0 188.6,84.44 188.6,188.6l0 2407.35c0,104.17 -84.44,188.6 -188.6,188.6l-5452.76 0c-104.16,0 -188.61,-84.44 -188.61,-188.6l0 -2407.35z"/>
  <path id="Rectangle_3" class="fil5" d="M892.33 1208.94c0,-65.1 52.77,-117.88 117.88,-117.88l5416.2 0c65.1,0 117.88,52.78 117.88,117.88l0 2370.59c0,65.1 -52.77,117.88 -117.88,117.88l-5416.2 0c-65.1,0 -117.88,-52.78 -117.88,-117.88l0 -2370.59z"/>
  <path id="Rectangle_4" class="fil6" d="M3239.89 3534.25c0,-39.06 31.66,-70.73 70.73,-70.73l815.37 0c39.05,0 70.73,31.66 70.73,70.73l0 163.17 -956.83 0 0 -163.17z"/>
  <path id="Rectangle_5" class="fil7" d="M3328.89 3534.25c0,-39.06 31.68,-70.73 70.73,-70.73l815.39 0c39.06,0 70.73,31.66 70.73,70.73l0 252.28 -956.84 0 0 -252.28z"/>
  <path id="Rectangle_7" class="fil8" d="M1532.87 1562.58c0,-9.95 8.06,-18.01 18.01,-18.01l299.73 0c9.95,0 18.01,8.06 18.01,18.01l0 0c0,9.95 -8.06,18.01 -18.01,18.01l-299.73 0c-9.95,0 -18.01,-8.06 -18.01,-18.01l0 0z"/>
  <path id="Rectangle_8" class="fil9" d="M1532.87 1460.54c0,-9.95 8.06,-18.01 18.01,-18.01l179.82 0c9.94,0 18,8.06 18,18.01l0 0c0,9.95 -8.06,18.01 -18,18.01l-179.82 0c-9.95,0 -18.01,-8.06 -18.01,-18.01l0 0z"/>
  <path id="Path_3" class="fil9" d="M2414.31 1417.88c25.58,-33.66 73.55,-40.17 107.16,-14.56 7.73,5.88 14.28,13.2 19.27,21.54 2.58,4.3 1.18,9.88 -3.11,12.46 -4.29,2.57 -9.85,1.18 -12.44,-3.13 -3.8,-6.36 -8.8,-11.94 -14.7,-16.43 -25.12,-19.13 -60.75,-14.75 -80.55,9.56l-1.21 1.55 -28.12 36.98c-43.91,57.77 -118.21,83.23 -188.12,64.77l-2.99 -0.81 -22.61 -6.39c-1.46,-0.41 -2.92,-0.78 -4.41,-1.11 -41.35,-9.12 -82.27,16.48 -92.39,57.38l-0.47 2.01 -4.66 21.2c-1.65,7.51 -4.85,14.58 -9.4,20.76 -17.98,24.47 -52.38,29.72 -76.82,11.72 -4.03,-2.97 -4.89,-8.65 -1.92,-12.68 2.96,-4.05 8.64,-4.91 12.67,-1.93 16.37,12.06 39.42,8.54 51.47,-7.85 2.66,-3.63 4.64,-7.71 5.83,-12.03l0.46 -1.88 4.66 -21.19c11.41,-51.87 62.67,-84.65 114.47,-73.23l2.72 0.65 2.7 0.72 22.62 6.39c62.65,17.71 129.67,-4.14 169.92,-55.11l1.84 -2.37 28.11 -36.98z"/>
  <path id="Path_4" class="fil10" d="M2332.61 1406.91c18.51,-41.21 66.9,-59.61 108.06,-41.07 8.28,3.72 15.87,8.8 22.48,15.01 15.55,14.64 29.95,37.78 43.45,69.47 1.96,4.61 -0.17,9.94 -4.78,11.91 -4.61,1.97 -9.93,-0.18 -11.89,-4.79 -12.6,-29.57 -25.75,-50.7 -39.2,-63.36 -5.14,-4.83 -11.04,-8.78 -17.48,-11.68 -31.46,-14.16 -68.32,-0.62 -83.29,30.24l-0.8 1.72 -5.84 12.99c-1.35,3.03 -2.92,5.95 -4.67,8.77 -21.55,34.61 -67.04,45.18 -101.61,23.62 -4.11,-2.57 -8.63,-4.43 -13.35,-5.52 -23.01,-5.27 -45.92,8.67 -52,31.31l-0.39 1.6 -10.09 44.11c-3.04,13.29 -9.5,25.56 -18.72,35.57 -28.77,31.29 -77.08,33.81 -108.92,6.1l-1.7 -1.52 -41.09 -37.87c-3.69,-3.39 -3.93,-9.14 -0.53,-12.83 3.17,-3.44 8.37,-3.88 12.05,-1.17l0.77 0.64 41.09 37.89c24.44,22.52 62.5,20.95 84.99,-3.52 6.54,-7.11 11.27,-15.69 13.8,-24.99l0.58 -2.35 10.09 -44.11c7.63,-33.33 40.81,-54.18 74.11,-46.54 5.86,1.34 11.48,3.53 16.69,6.5l2.21 1.31c26.08,16.27 60.38,8.29 76.62,-17.81 0.89,-1.41 1.7,-2.87 2.45,-4.36l1.07 -2.25 5.84 -12.99z"/>
  <ellipse id="Oval_2" class="fil11" cx="1326.02" cy="1511.56" rx="122.91" ry="123.04"/>
  <g style="clip-path:url(#id0)">
   <polygon class="fil12" points="1059.22,1893.03 3050.76,1893.03 3050.76,3574.89 1059.22,3574.89 "/>
  </g>
  <g style="clip-path:url(#id1)">
   <g id="_2408459498864">
    <path id="_1" class="fil13 str0" d="M1326.24 3185.06c0,0 236.76,-68.06 341.15,-207 104.39,-138.93 139.59,-273.61 319.13,-273.61 179.55,0 202.56,206.26 396.66,206.26 194.1,0 204.71,-263.03 269.23,-367.47 64.5,-104.44 175.84,-104.44 175.84,-104.44" filter="url(#filter2_d)"/>
    <path id="Path_x0020_3_2" class="fil14" d="M1326.24 3170.7c0,0 236.76,-67.78 341.15,-206.11 104.39,-138.34 139.59,-272.42 319.13,-272.42 179.55,0 202.56,205.36 396.66,205.36 194.1,0 204.71,-261.9 269.23,-365.88 64.5,-103.99 175.84,-103.99 175.84,-103.99l0 877.02c0,20.05 -16.26,36.31 -36.31,36.31l-1429.38 0c-20.05,0 -36.31,-16.26 -36.31,-36.31l0 -133.98z"/>
    <path class="fil15" d="M1248.4 2060.09l556.22 0c18.45,0 33.42,14.97 33.42,33.41l-0.01 0c0.01,18.45 -14.96,33.41 -33.41,33.41l-556.23 0.01c-18.45,-0.01 -33.41,-14.97 -33.41,-33.42l-0.01 0c0.01,-18.45 14.97,-33.41 33.42,-33.41z"/>
    <path id="Rectangle_12" class="fil16" d="M1214.99 2260.58c0,-18.45 14.96,-33.41 33.42,-33.41l222.45 0c18.44,0 33.41,14.96 33.41,33.41l0 0c0,18.46 -14.96,33.42 -33.41,33.42l-222.45 0c-18.46,0 -33.42,-14.96 -33.42,-33.42l0 0z"/>
    <path id="Oval_3" class="fil15" d="M2705.84 2099.09c0,-21.53 -17.43,-38.98 -38.94,-38.98 -21.5,0 -38.94,17.46 -38.94,38.98 0,21.53 17.43,38.98 38.94,38.98 21.5,0 38.94,-17.46 38.94,-38.98z"/>
    <path id="Oval_4" class="fil15" d="M2817.11 2099.09c0,-21.53 -17.43,-38.98 -38.94,-38.98 -21.51,0 -38.94,17.46 -38.94,38.98 0,21.53 17.43,38.98 38.94,38.98 21.5,0 38.94,-17.46 38.94,-38.98z"/>
    <path id="Oval_5" class="fil15" d="M2928.36 2099.09c0,-21.53 -17.43,-38.98 -38.94,-38.98 -21.5,0 -38.94,17.46 -38.94,38.98 0,21.53 17.43,38.98 38.94,38.98 21.51,0 38.94,-17.46 38.94,-38.98z"/>
   </g>
  </g>
  <path class="fil17" d="M1059.22 1951.96c0,-32.56 26.38,-58.94 58.94,-58.94l1873.66 0c32.55,0 58.94,26.38 58.94,58.94l0 1563.99c0,32.55 -26.39,58.94 -58.94,58.94l-1873.66 0c-32.55,0 -58.94,-26.38 -58.94,-58.94l0 -1563.99z"/>
  <polygon id="Path_5" class="fil18" points="3841.09,2358.75 3841.09,3056.42 3737,3056.42 3737,2358.75 "/>
  <polygon id="Path_6" class="fil10" points="3841.09,2525.48 3841.09,3056.42 3737,3056.42 3737,2525.48 "/>
  <polygon id="Path_7" class="fil9" points="3841.09,2858.93 3841.09,3056.42 3737,3056.42 3737,2858.93 "/>
  <polygon id="Path_8" class="fil18" points="4090.89,2192.02 4090.89,3056.42 3986.8,3056.42 3986.8,2192.02 "/>
  <polygon id="Path_9" class="fil10" points="4090.89,2442.11 4090.89,3056.42 3986.8,3056.42 3986.8,2442.11 "/>
  <polygon id="Path_10" class="fil9" points="4090.89,2858.93 4090.89,3056.42 3986.8,3056.42 3986.8,2858.93 "/>
  <polygon id="Path_11" class="fil18" points="4340.71,2317.06 4340.71,3056.42 4236.62,3056.42 4236.62,2317.06 "/>
  <polygon id="Path_12" class="fil10" points="4340.71,2567.15 4340.71,3056.42 4236.62,3056.42 4236.62,2567.15 "/>
  <polygon id="Path_13" class="fil9" points="4340.71,2900.61 4340.71,3056.42 4236.62,3056.42 4236.62,2900.61 "/>
  <polygon id="Path_14" class="fil18" points="4590.52,2108.66 4590.52,3056.42 4486.43,3056.42 4486.43,2108.66 "/>
  <polygon id="Path_15" class="fil10" points="4590.52,2358.75 4590.52,3056.42 4486.43,3056.42 4486.43,2358.75 "/>
  <polygon id="Path_16" class="fil9" points="4590.52,2692.2 4590.52,3056.42 4486.43,3056.42 4486.43,2692.2 "/>
  <polygon id="Path_17" class="fil18" points="4840.33,1941.93 4840.33,3056.42 4736.25,3056.42 4736.25,1941.93 "/>
  <polygon id="Path_18" class="fil10" points="4840.33,2275.39 4840.33,3056.42 4736.25,3056.42 4736.25,2275.39 "/>
  <polygon id="Path_19" class="fil9" points="4840.33,2775.57 4840.33,3056.42 4736.25,3056.42 4736.25,2775.57 "/>
  <polygon id="Path_20" class="fil18" points="5090.17,2192.02 5090.17,3056.42 4986.06,3056.42 4986.06,2192.02 "/>
  <polygon id="Path_21" class="fil10" points="5090.17,2442.11 5090.17,3056.42 4986.06,3056.42 4986.06,2442.11 "/>
  <polygon id="Path_22" class="fil9" points="5090.17,2825.58 5090.17,3056.42 4986.06,3056.42 4986.06,2825.58 "/>
  <polygon id="Path_23" class="fil18" points="5339.96,2275.39 5339.96,3056.42 5235.87,3056.42 5235.87,2275.39 "/>
  <polygon id="Path_24" class="fil10" points="5339.96,2442.11 5339.96,3056.42 5235.87,3056.42 5235.87,2442.11 "/>
  <polygon id="Path_25" class="fil9" points="5339.96,2767.23 5339.96,3056.42 5235.87,3056.42 5235.87,2767.23 "/>
  <polygon id="Path_26" class="fil18" points="5589.78,2108.66 5589.78,3056.42 5485.69,3056.42 5485.69,2108.66 "/>
  <polygon id="Path_27" class="fil10" points="5589.78,2442.11 5589.78,3056.42 5485.69,3056.42 5485.69,2442.11 "/>
  <polygon id="Path_28" class="fil9" points="5589.78,2850.58 5589.78,3056.42 5485.69,3056.42 5485.69,2850.58 "/>
  <polygon id="Path_29" class="fil18" points="5839.58,2275.39 5839.58,3056.42 5735.5,3056.42 5735.5,2275.39 "/>
  <polygon id="Path_30" class="fil10" points="5839.58,2442.11 5839.58,3056.42 5735.5,3056.42 5735.5,2442.11 "/>
  <polygon id="Path_31" class="fil9" points="5839.58,2850.6 5839.58,3056.42 5735.5,3056.42 5735.5,2850.6 "/>
  <path id="Rectangle_14" class="fil19" d="M3703.69 1716.86c0,-13.82 11.2,-25.02 25.01,-25.02l832.65 0c13.8,0 25,11.2 25,25.02l0 0c0,13.8 -11.2,25 -25,25l-832.65 0c-13.82,0 -25.01,-11.2 -25.01,-25l0 0z"/>
  <path class="fil11" d="M3728.69 1550.12l416.3 0c13.81,0 25.01,11.2 25.01,25.01l-0 0c0,13.81 -11.2,25.01 -25,25.01l-416.3 0c-13.8,0 -25,-11.2 -25,-25.01l-0.01 0c0.01,-13.81 11.21,-25.01 25.01,-25.01z"/>
  <polygon id="Path_32" class="fil20" points="6578.06,5303.11 6712.96,6368.82 6642.24,6367.88 6507.35,5313.08 "/>
  <path id="Path_33" class="fil21" d="M5665.43 5470.63c-61.49,0 -111.34,-49.85 -111.34,-111.34l0 0c0,-61.5 49.85,-111.34 111.34,-111.34l445.13 0c67.45,0 123.82,-51.32 130.14,-118.46l71.17 -756.69c6.31,-67.16 62.68,-118.47 130.12,-118.47l279.37 0c76.12,0 136.15,64.81 130.31,140.72l-73.36 954.88c-5.23,68.11 -62.02,120.7 -130.32,120.7l-982.57 0z"/>
  <path id="Combined_x0020_Shape" class="fil20" d="M5554.12 5358.34c0.62,0.01 1.23,0.01 1.84,0.01l979.92 0c68.28,0 125.07,-52.57 130.32,-120.66l73.32 -951.49c0.79,-10.37 0.37,-20.53 -1.17,-30.36 -6.51,-0.99 -13.17,-1.51 -19.97,-1.51l-278.06 0c-67.43,0 -123.78,51.3 -130.12,118.43l-71.12 753.94c-6.33,67.13 -62.68,118.43 -130.12,118.43l-443.8 0c-61.33,0 -111.05,49.72 -111.05,111.06 0,0.72 0,1.43 0.02,2.16z"/>
  <path id="Path_34" class="fil22" d="M6427.62 4070.79c143.78,-33.5 153.25,-230.97 43.93,-299.47 112.73,-236.46 -147.98,-471.24 -326.56,-326.45 -117.07,-50.14 -214.37,145.52 -105.43,297.49 -45.68,260.93 47.29,328.37 214.87,331.24l173.19 -2.81z"/>
  <path id="Path_35" class="fil23" d="M6425.82 4023.63c0,0 -69.95,-16.42 -72.38,-131.1 -2.42,-114.67 -0.72,-153.8 -0.72,-153.8l-154.07 -2.78c0,0 -1.69,127.79 -1.71,174.03 -0.06,124.16 -86.52,113.67 -86.52,113.67 0,0 17.96,100.68 157.58,108.53 109,6.14 157.82,-108.53 157.82,-108.53z"/>
  <path id="Path_36" class="fil24" d="M6388.65 3681.46c68.74,-2.66 57.53,98.01 -13.87,97.87 0,0 -41.47,143.01 -185.44,143.01 -116.94,0 -124.54,-166.68 -125.6,-199.93 -1.14,-35.46 -1.29,-151.92 -1.29,-151.92l328.88 -0.15 -2.68 111.12z"/>
  <path id="Path_37" class="fil17 str1" d="M6217.09 3826.27c0,0 -34.29,29.05 -74.01,1.84"/>
  <path id="Path_38" class="fil17 str2" d="M6194.43 3859.91c-10.67,4.93 -20.95,5.28 -30.12,0.38"/>
  <path id="Path_x0020_8" class="fil17 str3" d="M6381.63 3735.59c-0.71,-16.15 4.21,-28.97 20.68,-31.55"/>
  <path id="Path_39" class="fil22" d="M6399.52 3669.02c0,0 -37.67,50.57 -45.3,50.84 -7.63,0.27 -10.31,-65.78 -10.31,-65.78 -46.22,-3.53 -163.16,-26.84 -191.83,-81.12 -20.05,47.89 -58.39,69.17 -83.56,65.09l-4.78 101.75 -11.75 -204.58 356.75 0 -9.22 133.79z"/>
  <path id="Path_40" class="fil25" d="M5721.86 6045.85c0,0 61.66,124.61 11.12,163.88 -50.63,39.28 -184.35,112.87 -184.35,112.87l354.27 -22.28 -78.75 -271.76 -102.28 17.29z"/>
  <path id="Path_41" class="fil26" d="M5868.62 6164.43c-17.48,2.05 1.19,60.94 -36.66,65.43 -37.78,4.47 -56.14,-51.32 -99,-33.64 -42.87,17.69 -199.22,109.14 -205.38,146.53 -6.24,37.38 52.02,48.37 131.9,39.94 79.89,-8.44 94.61,-36.88 154.59,-25.42 59.89,11.45 104.75,-6.8 102.79,-50.59 -1.98,-43.78 -30.75,-144.27 -48.24,-142.23z"/>
  <path id="Path_x0020_14" class="fil27" d="M5713.38 6205.29l7.78 11.67c3.82,5.73 1.95,13.49 -4.05,16.84l-105.69 59.01c-3.43,1.91 -7.58,1.99 -11.08,0.22l-16.41 -8.34c25.77,-18.67 46.83,-32.7 70.13,-46.48 17.87,-10.58 37.66,-21.48 59.33,-32.92z"/>
  <path id="Path_42" class="fil28" d="M6255.51 4947.63c-107.26,4.79 -704.18,136.89 -812.64,159.33 -108.45,22.45 -200.15,143.88 -117.44,284.5 92.89,157.85 332.55,606.15 390.74,707.22 28.8,50.01 174.1,21.97 139.96,-61.98 -63.62,-156.51 -93.16,-549.66 -255.37,-693.01 0,0 545.5,94.99 781.13,-13.82 171.25,-79.09 132.52,-393.83 -126.38,-382.24z"/>
  <path id="Path_43" class="fil29" d="M5495.58 4313.07c0,0 1.21,-87.31 -29.31,-132.94 -30.53,-45.63 -31.74,-94.1 -54.85,-92.52 -23.11,1.59 -0.22,114.25 -0.22,114.25 0,0 -29.31,-11.2 -50.37,-25.37 -21.06,-14.18 -84.92,-84.05 -99.83,-71.67 -25.31,21.1 15.44,140.1 37.64,163.89 22.27,23.8 143.92,102.06 143.92,102.06l53.02 -57.69z"/>
  <path id="Path_44" class="fil30" d="M6154.68 4260.74c-49.9,115.78 -141.24,328.48 -178.9,391.94 -47.2,79.46 -121.61,114.47 -208.75,55.52 -91.57,-61.95 -343.67,-303.61 -351.06,-358.33 -7.33,-54.74 54.38,-120.41 110.21,-86.42 55.83,34.01 287.83,227.19 287.83,227.19 0,0 93.63,-240.15 168.95,-379.26 65.22,-120.35 247.65,-26.63 171.71,149.37z"/>
  <path id="Path_45" class="fil31" d="M5813.06 4490.75c0,0 -25.15,85.34 -31.03,80.4 -5.88,-4.94 4.49,-102.71 4.49,-102.71l26.53 22.3z"/>
  <path id="Path_46" class="fil32" d="M6653.28 4121.25c0,0 -120.22,402.8 -123.79,479.04 -3.56,76.25 98.33,300.36 80.99,357 -40.01,130.9 -550.69,187.26 -570.2,11.17 -9.1,-82.12 9.83,-155.83 -11.99,-252.6 -21.74,-96.77 -109.13,-240.56 -59.56,-375.75 49.57,-135.19 36.28,-260.26 71.74,-283.91 35.46,-23.63 118.34,-48.74 118.34,-48.74 40.3,59.34 176.37,58.48 241.28,-4.18 0,0 161.29,31.31 253.19,117.96z"/>
  <path id="Path_47" class="fil33" d="M6545.54 4186.48c-80.15,127.25 -79.91,348.81 -122.95,377.82 -43.04,29.02 -210.56,0.54 -210.56,23.53 0,22.97 231.5,233.56 193.5,334.24 -19.9,52.72 -14.5,99.87 16.2,141.48l10.02 -2.19c91.21,-20.62 164.54,-57.65 178.73,-104.07 17.35,-56.64 -96.29,-280.75 -92.74,-357 3.02,-64.73 98.58,-364.76 127.4,-453.97 -23.47,-41.41 -56.66,-28.02 -99.6,40.16z"/>
  <path id="Path_48" class="fil34" d="M6408.9 4524.08c0,0 -101.27,-89.67 -132.27,-100.08 -31,-10.41 -212.57,-22.91 -211.41,0.6 1.3,25.2 98.82,23.75 108.92,36.14 10.1,12.39 12.4,97.11 50.59,106.61 38.12,9.51 152.4,25.91 152.4,25.91l31.77 -69.19z"/>
  <path id="Path_49" class="fil30" d="M6678.3 4144.38c106.69,150.66 197.78,380.15 232.75,469.62 34.96,89.47 -0.31,224.43 -154.06,197.93 -153.47,-26.41 -397.67,-170 -424.69,-211.88 -27.02,-41.88 14.03,-118.09 65.72,-108.12 47.89,9.23 285.42,110.29 285.42,110.29 0,0 -152.81,-271.01 -190.12,-343.66 -62.33,-121.33 91,-246.92 184.99,-114.18z"/>
  <path id="Path_50" class="fil31" d="M6681.03 4600.37c0,0 80.04,39.79 70.28,23.09 -9.76,-16.68 -100.82,-75.3 -100.82,-75.3l30.54 52.21z"/>
  <path id="Path_51" class="fil35" d="M2759.09 6002.27c0,0 -1.6,102.69 61.42,139.16 63.02,36.48 160.66,104.25 160.66,104.25l-371.41 12.6 10.59 -256.94 138.75 0.92z"/>
  <path id="Path_52" class="fil36" d="M2596.78 6115.43l-6.05 166.58 86.28 0 5.9 -21.46c0,0 32.49,-1.33 51.25,7.94 19.84,9.8 22.5,14.55 22.5,14.55l273.64 0.58c0,0 13.5,-53.85 -69.91,-92.79 -83.41,-38.95 -144.15,-94.23 -155.68,-99.89 -11.62,-5.7 -35.07,-8.92 -51.58,4.47 -16.5,13.39 -29.56,48.6 -66.98,49.7 -48.16,1.43 -75.82,-57.86 -89.38,-29.68z"/>
  <line id="Path_x0020_38" class="fil17 str4" x1="2830.64" y1="6109.02" x2="2802.27" y2= "6136.45" />
  <line id="Path_x0020_38_2" class="fil17 str4" x1="2871.98" y1="6129.81" x2="2843.61" y2= "6157.25" />
  <line id="Path_x0020_38_3" class="fil17 str4" x1="2913.36" y1="6150.62" x2="2884.99" y2= "6178.06" />
  <path id="Path_53" class="fil37" d="M2487.25 3783.88c0,0 103.18,1136.11 106.39,1215.07 3.21,78.98 -33.15,215.28 -32.44,363 0.71,147.73 13.27,668.38 13.27,668.38l227.62 4.83c0,0 95.66,-940.87 96.7,-1081.96 1.02,-141.09 9.8,-1155.74 9.8,-1155.74l-421.34 -13.58z"/>
  <path id="Path_54" class="fil38" d="M2651.32 5034.32l0.25 2.81c3.43,48.17 -26.49,206.62 -89.74,475.37l-0.62 -150.54 0 0c-0.7,-145.1 34.36,-279.16 32.57,-358.71l-0.13 -4.29c-1.08,-26.61 -13.52,-173.28 -29.53,-356.07l7.48 26.77c43.88,158.57 70.46,280.14 79.73,364.67z"/>
  <polygon id="Path_55" class="fil35" points="2209.97,5987.8 2166.08,6253.71 2327.9,6252.9 2333.01,5983.63 "/>
  <path id="Path_56" class="fil36" d="M2192.56 6102.82c-15.84,3.43 -27.32,17.18 -27.85,33.38l-1.31 39.54c-22.89,25.39 -33.7,98.74 -34.84,106.88 -0.07,0.5 -0.12,0.99 -0.06,1.51 3.36,35.94 238.75,35.5 260.85,1.7 1,-1.54 1.07,-3.37 0.78,-5.19 -2.48,-14.98 -15.63,-87.51 -40.92,-107.29l-0.15 -39.17c-0.06,-15.95 -10.79,-29.89 -26.19,-34.02l-24.32 -6.53c-23.66,-34.5 -55.89,-33.28 -83.51,4.31l-22.47 4.88z"/>
  <line id="Path_x0020_39" class="fil17 str4" x1="2224.21" y1="6126.68" x2="2289.72" y2= "6126.68" />
  <line id="Path_x0020_39_2" class="fil17 str4" x1="2224.21" y1="6157.86" x2="2289.72" y2= "6157.86" />
  <line id="Path_x0020_39_3" class="fil17 str4" x1="2234.61" y1="6189.02" x2="2279.28" y2= "6189.02" />
  <path id="Path_57" class="fil39" d="M2291.58 3798.79c0,0 -72.29,778.77 -71.32,927.9 0.98,149.15 22.26,214.64 -8.01,321.63 -30.28,106.99 -56.1,960.93 -56.1,960.93l223.86 24.49c0,0 143.02,-913.77 158.57,-1040.45 15.54,-126.7 207.76,-1205.25 207.76,-1205.25l-454.76 10.75z"/>
  <path id="Path_58" class="fil38" d="M2352.04 4327.36l-13.65 49.43c-39.98,145.89 -76.89,300.15 -67.23,520.51l0.47 10.06c2.37,47.73 -28,324.78 -91.11,831.14l-6 35.59c-6.19,36.29 -11.71,67.26 -16.54,92.9l1.38 -44.84c8.04,-247.52 29.69,-691.91 52.87,-773.82 30.27,-106.98 9,-172.48 8.01,-321.62 -0.69,-104.4 34.54,-517.32 55.73,-755.66l15.6 -172.24 94.49 -2.23 0.24 26.52c1.66,244.87 -9.76,412.95 -34.27,504.27l0 0z"/>
  <path id="Path_59" class="fil35" d="M3392.95 2835.74c0,0 -18.68,-103 -11.97,-123.87 5.74,-18.02 59.99,-44.01 59.99,-44.01 0,0 94.35,-147.42 115,-132.41 16.8,12.17 -49.13,120.85 -49.13,120.85 0,0 60.12,62.39 59.28,90.28 -0.84,27.89 -98.14,115.19 -98.14,115.19l-75.04 -26.03z"/>
  <path id="Path_60" class="fil40" d="M3443 2666.37c0,0 41.79,-5.62 48.44,7.24 5.67,10.96 -29.05,42.05 -29.05,50.78 0,8.74 0.5,74.87 3.29,75.47 2.79,0.6 41.86,-107.92 33.52,-130.87 -6.86,-18.85 -56.2,-2.62 -56.2,-2.62z"/>
  <path id="Path_61" class="fil41" d="M2894.47 2966.8c-109.45,-94.56 -273.81,75.91 -90.54,234.4 69.92,60.47 289.55,211.28 343.39,244.45 85.71,52.79 156.14,5.15 185.08,-77.92 24.55,-70.42 171.42,-447.39 152.73,-502.76 -12.18,-36.11 -77.59,-71.26 -110.42,-42.84 -47.97,41.53 -194.73,405.82 -194.73,405.82 0,0 -161.04,-153.64 -285.5,-261.16z"/>
  <path id="Path_62" class="fil42" d="M3179.97 3227.96c0,0 48.06,58.32 51.54,49.4 3.46,-8.9 -38.12,-83.83 -38.12,-83.83l-13.41 34.43z"/>
  <path id="Path_x0020_41" class="fil17 str5" d="M3361.93 2845.49c38.19,-17.68 79.91,4.18 102.89,39.26"/>
  <path id="Path_63" class="fil43" d="M2425.26 2857.72c0,0 62.93,-14.47 65.12,-115.56 2.18,-101.08 0.65,-135.59 0.65,-135.59l149.19 -2.45c0,0 1.5,112.65 1.53,153.41 0.05,88.7 67.25,112.68 67.25,112.68 0,0 -5.57,96.99 -131.17,103.92 -98.06,5.41 -152.56,-116.41 -152.56,-116.41z"/>
  <path id="Path_64" class="fil44" d="M2773.09 2497.62l-3.32 95.53c28.18,-32.49 47.23,-72.76 52.87,-124.4l-49.54 28.87z"/>
  <path id="Path_65" class="fil35" d="M2477.31 2555.49c-61.82,-2.34 -51.73,86.39 12.5,86.28 0,0 69.03,136.08 177.41,136.43 52.21,0.17 69.24,-45.42 84.9,-77.42 15.66,-32 27.14,-79.87 28.09,-109.18 1.02,-31.26 1.15,-133.92 1.15,-133.92l-306.44 -0.14 2.4 97.96z"/>
  <path id="Path_66" class="fil45" d="M2781.35 2504.78l-215.51 0c-2.26,38.18 -15.2,69.88 -48.05,93.27 -1.97,32.85 -23.85,44.02 -18.69,-22.7 -10.07,-13.46 -46.08,-15.98 -57.94,-2.52 -20.25,-55.79 -11.61,-134.73 46.95,-146.15 -45.97,-118.9 579.04,-144.06 293.24,78.1z"/>
  <path id="Path_67" class="fil17 str6" d="M2643.25 2712.36c0,0 28.09,20.23 65.05,-1.88"/>
  <path id="Path_x0020_8_2" class="fil17 str7" d="M2486.95 2606.15c0.64,-14.24 -3.8,-25.55 -18.61,-27.82"/>
  <path id="Path_68" class="fil32" d="M2452.93 2840.86l178.03 115.48 80.27 -93.23c0,0 169.11,52.33 200.49,113.53 45.26,88.29 -14.38,795.72 11.62,838.41 55.41,90.97 -18.26,153.42 -262.15,176.36 -243.89,22.94 -460.25,4.16 -421,-117.24 39.27,-121.41 -112.26,-913.69 21.33,-957.33 41.74,-13.64 191.4,-75.97 191.4,-75.97z"/>
  <path id="Path_69" class="fil42" d="M2332.79 3059.27c10.79,19.04 5.22,84.97 -16.67,197.8 -18.66,96.13 2.68,195.56 58.99,275.79l3.17 4.43c19.04,26.29 36.6,60.89 52.67,103.82 39.42,105.28 -51.49,193.05 18.18,357.76l-8.42 -0.4c-136.7,-7.06 -227.05,-42.22 -200.5,-124.32 32.2,-99.54 -63.87,-650.08 -25.88,-869.2 65.76,12.89 105.25,31 118.47,54.32z"/>
  <path id="Path_70" class="fil46" d="M2452.93 2840.86l159.24 103.67c-23.34,27.09 -35.86,58.6 -40.58,93.29 -61.2,-47.77 -124.81,-114.54 -144.52,-186.33l25.86 -10.64z"/>
  <path id="Path_71" class="fil46" d="M2643.55 2941.83c26.92,18.18 48.4,50.37 65.89,86.97 20.96,-42.06 28.99,-97.6 28.99,-156.84l-26.3 -10.37 -68.58 80.24z"/>
  <path id="Path_72" class="fil47" d="M2612.17 2944.52l2.08 1.16c9.55,5.32 21.46,3.75 29.29,-3.85l0 0c60.03,219.74 102.26,461.59 115.03,707.39l-62.65 103.9 -73.28 -97.24c9.55,-255.45 9.48,-504.54 -10.46,-711.36z"/>
  <path id="Rectangle_16" class="fil48" d="M2771.11 3500.85c1.73,-16.41 16.76,-28.09 33.09,-25.7l145.06 21.21c15.42,2.25 26.32,16.28 24.68,31.77l-26.03 247.71c-1.73,16.41 -16.76,28.09 -33.09,25.71l-145.06 -21.21c-15.42,-2.25 -26.31,-16.28 -24.69,-31.78l26.03 -247.71z"/>
  <path id="Rectangle_17" class="fil49" d="M2788.41 3495.87c1.78,-16.96 17.73,-28.75 34.47,-25.46l151.67 29.74 103.79 -1.73c17.43,-0.3 31.2,14.73 29.38,32.07l-25.99 247.33c-1.53,14.59 -13.72,25.76 -28.4,26.01l-110.89 1.85 -156.75 -30.74c-14.76,-2.9 -24.87,-16.59 -23.29,-31.55l26.01 -247.52z"/>
  <path id="Rectangle_18" class="fil50" d="M2815.8 3553.87c1.15,-10.93 11.35,-18.56 22.15,-16.59l69.62 12.74c9.7,1.78 16.4,10.72 15.36,20.52l-2.97 28.22c-1.14,10.92 -11.34,18.56 -22.15,16.58l-69.61 -12.74c-9.7,-1.77 -16.39,-10.72 -15.36,-20.52l2.96 -28.22z"/>
  <path id="Rectangle_19" class="fil51" d="M2962.95 3508.41c0.54,-5.17 5.19,-8.93 10.36,-8.39l6.09 0.65c5.17,0.54 8.93,5.17 8.39,10.36l-30.04 285.78c-0.54,5.18 -5.19,8.94 -10.36,8.39l-6.09 -0.65c-5.19,-0.54 -8.93,-5.18 -8.39,-10.36l30.03 -285.79z"/>
  <path id="Rectangle_20" class="fil52" d="M2971.24 3509.28c0.54,-5.17 5.19,-8.93 10.36,-8.39l6.1 0.65c5.19,0.54 8.93,5.17 8.39,10.36l-30.04 285.79c-0.54,5.18 -5.19,8.94 -10.36,8.39l-6.09 -0.65c-5.19,-0.54 -8.93,-5.17 -8.39,-10.36l30.03 -285.78z"/>
  <path id="Path_73" class="fil35" d="M2615.61 3611.94c0,0 54.06,-10.8 76.18,-28.07 22.12,-17.26 89.14,-29.46 89.14,-29.46l-21.44 44.86c0,0 164.23,-15.33 168.12,0.78 3.9,16.09 -43.6,33.59 -43.6,33.59 0,0 -23.42,43.47 -46.1,68.68 -21.45,23.84 -128.06,21.01 -165.43,6.13 -32.29,-12.86 -67.4,-6.44 -67.4,-6.44l10.54 -90.08z"/>
  <path id="Path_74" class="fil41" d="M2180.79 2985.13c58.72,-126.09 259.8,-41.14 209.12,93.95 -49.08,130.85 -168.01,436.39 -168.01,436.39 0,0 376.88,47.54 406.25,69.71 39.21,29.57 14.97,113.97 -18.34,129.01 -28.18,12.71 -237.56,20.13 -442.42,4.09 -101.34,-7.93 -176.29,-51.19 -186.74,-163.57 -7.33,-78.69 143.55,-448.11 200.13,-569.59z"/>
  <path id="Path_75" class="fil42" d="M2222.04 3515.4c0,0 -31.32,59.17 -22.37,60.37 8.96,1.21 54.47,-56.04 54.47,-56.04l-32.1 -4.33z"/>
  <path id="Path_x0020_40" class="fil17 str5" d="M2601.62 3578.76c11.62,36.87 3.46,80.11 -12.67,110.67"/>
  <path id="Rectangle_21" class="fil53" d="M1006.26 5226.07l0 0c97.44,-43.76 211.86,0.18 255.01,97.89l33.74 76.44 0 0c-97.44,43.76 -211.86,-0.18 -255,-97.89l-33.74 -76.44z"/>
  <path id="Path_76" class="fil54" d="M1145.5 5272.7c97.25,69.19 160.3,146.31 189.36,231.32 29.2,85.42 41.16,228.62 35.73,429.32 -0.08,3.1 2.35,5.69 5.42,5.77 3.09,0.09 5.66,-2.36 5.74,-5.47 5.47,-201.95 -6.59,-346.29 -36.34,-433.31 -29.89,-87.43 -94.45,-166.37 -193.47,-236.85 -2.52,-1.79 -6,-1.18 -7.78,1.36 -1.78,2.54 -1.18,6.06 1.34,7.85z"/>
  <path id="Rectangle_22" class="fil53" d="M1832.88 5178.61l0 0c-95.88,-45.1 -210.16,-3.51 -254.64,92.67l-37.87 81.94 0 0c95.88,45.1 210.17,3.51 254.64,-92.67l37.87 -81.94z"/>
  <path id="Rectangle_23" class="fil55" d="M1066.77 4990.77l0 0c92.46,-19.65 183.35,39.37 203.01,131.83l15.9 74.85 0 0c-92.46,19.65 -183.35,-39.37 -203,-131.83l-15.91 -74.85z"/>
  <path id="Path_77" class="fil54" d="M1134.76 5050.5c71.27,49.74 119.47,103.39 144.75,160.87l1.56 3.62 1.57 3.8c25.91,64.32 68.79,232.76 128.44,504.7 0.66,3.03 3.64,4.96 6.66,4.3 3.01,-0.66 4.91,-3.67 4.25,-6.7l-7.39 -33.55 -8.63 -38.83c-53.88,-240.96 -92.57,-388.07 -116.24,-441.89 -26.21,-59.57 -75.78,-114.74 -148.62,-165.6 -2.54,-1.77 -6.02,-1.13 -7.77,1.41 -1.75,2.56 -1.11,6.06 1.43,7.84z"/>
  <path id="Rectangle_24" class="fil53" d="M1693.02 4933.89l0 0c-101.91,-1.79 -185.96,79.38 -187.72,181.3l-1.58 90.92 0 0c101.91,1.8 185.97,-79.38 187.73,-181.29l1.57 -90.92z"/>
  <path id="Path_78" class="fil54" d="M1626.16 4970.46c-65.55,96.19 -113.46,189.04 -143.67,278.55 -30.18,89.36 -60.27,227.36 -90.33,414.12 -0.49,3.07 1.57,5.97 4.61,6.46 3.05,0.49 5.92,-1.59 6.41,-4.66l3.69 -22.7 2.54 -15.3c27.9,-167 55.79,-291.79 83.65,-374.29 29.87,-88.48 77.3,-180.42 142.3,-275.81 1.75,-2.57 1.11,-6.07 -1.44,-7.83 -2.53,-1.77 -6.01,-1.12 -7.76,1.45z"/>
  <path id="Path_79" class="fil54" d="M1484.16 4907.44c0,0 -53.16,151.45 -76.67,374.53 -23.49,223.07 -9.78,446.15 -9.78,446.15l25.95 2.36c0,0 -13.94,-260.37 2.79,-447.53 16.74,-187.17 70.68,-374.33 70.68,-374.33l-12.97 -1.18z"/>
  <ellipse id="Oval_6" class="fil56" transform="matrix(3.34525 0.834064 -0.834064 3.34525 1511.23 4832.43)" rx="24.83" ry="38.08"/>
  <ellipse id="Oval_7" class="fil55" transform="matrix(3.34525 0.834064 -0.834064 3.34525 1512.95 4840.35)" rx="17.28" ry="24.83"/>
  <path id="Path_80" class="fil57" d="M1505.63 4915.57l47.82 -149.28c2.85,-8.88 -1.98,-18.39 -10.77,-21.25 -8.81,-2.88 -18.25,1.99 -21.09,10.87l-47.84 149.28c-2.84,8.88 2,18.4 10.79,21.27 8.81,2.86 18.23,-2.01 21.09,-10.88z"/>
  <path id="Path_81" class="fil54" d="M1225.36 4757.39c0,0 68.7,145.06 115.39,364.46 46.69,219.39 56.37,442.69 56.37,442.69l-25.55 5.06c0,0 -13.37,-260.39 -49.57,-444.79 -36.21,-184.4 -109.42,-364.89 -109.42,-364.89l12.76 -2.53z"/>
  <ellipse id="Oval_8" class="fil56" transform="matrix(-3.23974 1.17917 1.17917 3.23974 1190.6 4685.6)" rx="24.83" ry="38.08"/>
  <ellipse id="Oval_9" class="fil55" transform="matrix(-3.23974 1.17917 1.17917 3.23974 1189.73 4693.67)" rx="17.28" ry="24.83"/>
  <path id="Path_82" class="fil58" d="M1204.9 4767.71l-63.18 -143.47c-3.76,-8.52 0.05,-18.49 8.5,-22.27 8.45,-3.77 18.35,0.08 22.11,8.62l63.17 143.46c3.75,8.53 -0.05,18.51 -8.5,22.28 -8.45,3.77 -18.35,-0.09 -22.1,-8.62z"/>
  <path id="Path_83" class="fil54" d="M1780.21 5202.52c-132.36,51.79 -224.63,111.64 -276.81,179.77 -52.17,68.12 -86.65,173.78 -103.65,316.99 -0.37,3.09 1.81,5.89 4.87,6.26 3.07,0.38 5.84,-1.83 6.21,-4.91 16.79,-141.37 50.67,-245.2 101.41,-311.45 50.74,-66.25 141.39,-125.05 272,-176.16 2.87,-1.13 4.3,-4.38 3.18,-7.28 -1.11,-2.9 -4.34,-4.34 -7.21,-3.22z"/>
  <path id="Path_x0020_151" class="fil54" d="M1425.52 5618c-62.84,-223.93 -311,-158.41 -311,-158.41 0,0 185.79,60.72 280.54,158.41l30.46 0z"/>
  <path id="Path_x0020_151_2" class="fil54" d="M1424.87 5583.6c62.84,-223.95 272.3,-191.2 272.3,-191.2 0,0 -127.21,104.57 -241.85,191.2l-30.45 0z"/>
  <path id="Path_x0020_151_3" class="fil54" d="M1424.4 5628.11c-56.18,-198.67 74.87,-369.68 74.87,-369.68 0,0 -6.64,235.28 -52.18,355.17l-22.68 14.51z"/>
  <path id="Path_x0020_114" class="fil53" d="M1369.43 5583.6c-24.84,-71.79 -49.55,-172.04 -68.06,-269.23 91.51,36.8 120.91,183.42 91.51,269.23l-23.44 0z"/>
  <path id="Rectangle_25" class="fil59" d="M1190.87 5537.45c-1.22,-13.89 9.73,-25.83 23.67,-25.83l361.32 0c13.93,0 24.88,11.94 23.67,25.83l-69.63 796.77c-1.07,12.27 -11.35,21.69 -23.67,21.69l-222.06 0c-12.33,0 -22.61,-9.42 -23.68,-21.69l-69.62 -796.77z"/>
  <g style="clip-path:url(#id2)">
   <polygon class="fil12" points="1190.78,5511.63 1599.62,5511.63 1599.62,6355.91 1190.78,6355.91 "/>
  </g>
  <g style="clip-path:url(#id3)">
   <g id="_2408459481344">
    <path id="_1_0" class="fil60" d="M1136.48 5458.91l152.58 0c-94.55,358.98 190.09,605.76 0,964.74l-152.58 0 0 -964.74z"/>
   </g>
  </g>
  <path class="fil17" d="M1190.87 5537.45c-1.22,-13.89 9.73,-25.83 23.67,-25.83l361.32 0c13.93,0 24.88,11.94 23.67,25.83l-69.63 796.77c-1.07,12.27 -11.35,21.69 -23.67,21.69l-222.06 0c-12.33,0 -22.61,-9.42 -23.68,-21.69l-69.62 -796.77z"/>
  <polygon id="Path_x0020_25" class="fil21" points="8000.93,5303.11 7866.05,6368.82 7936.76,6367.88 8071.65,5313.08 "/>
  <polygon id="Path_84" class="fil21" points="7608.41,5303.11 7473.52,6368.82 7544.24,6367.88 7679.13,5313.08 "/>
  <polygon id="Path_85" class="fil20" points="8469.46,5303.11 8604.35,6368.82 8533.62,6367.88 8398.74,5313.08 "/>
  <path id="Path_86" class="fil21" d="M7556.82 5470.63c-61.48,0 -111.33,-49.85 -111.33,-111.34l0 0c0,-61.5 49.85,-111.34 111.33,-111.34l445.14 0c67.44,0 123.81,-51.32 130.12,-118.46l71.18 -756.69c6.3,-67.16 62.68,-118.47 130.12,-118.47l279.37 0c76.14,0 136.15,64.81 130.32,140.72l-73.38 954.88c-5.23,68.11 -62.02,120.7 -130.32,120.7l-982.57 0z"/>
  <path id="Combined_x0020_Shape_2" class="fil20" d="M7445.51 5358.34c0.61,0.01 1.23,0.01 1.84,0.01l979.92 0c68.28,0 125.07,-52.57 130.31,-120.66l73.32 -951.49c0.8,-10.37 0.37,-20.53 -1.17,-30.36 -6.51,-0.99 -13.17,-1.51 -19.97,-1.51l-278.05 0c-67.44,0 -123.8,51.3 -130.13,118.43l-71.11 753.94c-6.34,67.13 -62.7,118.43 -130.12,118.43l-443.81 0c-61.33,0 -111.05,49.72 -111.05,111.06 0,0.72 0.01,1.43 0.02,2.16z"/>
  <path id="Path_87" class="fil61" d="M7580.86 6028.45c0,0 61.84,124.89 11.14,164.25 -50.77,39.36 -184.86,113.13 -184.86,113.13l355.28 -22.32 -78.98 -272.39 -102.58 17.34z"/>
  <path id="Path_88" class="fil62" d="M7727.21 6141.47c-11.19,5.33 7.2,55.51 -32.14,51.98 -39.32,-3.51 -64.02,-55.39 -93.02,-52.02 -29.01,3.36 -47.42,55.61 -102.65,91.98 -55.2,36.39 -137.07,79.79 -131.59,116.37 5.48,36.59 134.31,46.38 199.58,34.27 65.27,-12.1 95.73,-38.33 138.07,-36.25 42.34,2.1 68.96,-3.09 82.23,-30.27 13.26,-27.19 -47.59,-182.23 -60.49,-176.07z"/>
  <path id="Path_89" class="fil63" d="M7724.06 6308.43l-3.62 -0.21c-52.48,-4.42 -88.48,28.58 -138.42,37.89 -49.96,9.31 -181.68,12.53 -202.73,-18.72 -1,-1.47 -1.92,-2.99 -2.78,-4.53 -7.08,8.69 -10.4,17.99 -8.69,28.83 5.48,34.81 134.32,44.13 199.59,32.62 65.27,-11.52 95.74,-36.5 138.08,-34.51l7.53 0.28c37.99,1.04 62.23,-4.79 74.71,-29.09 3.03,-5.93 2.35,-18.66 -0.7,-34.76 -17.71,12.12 -40.07,22.9 -62.98,22.21l0 0z"/>
  <path id="Path_90" class="fil64" d="M8116.04 4927.67c-107.55,4.8 -706.2,137.21 -814.96,159.7 -108.77,22.49 -200.72,144.21 -117.78,285.17 93.15,158.21 333.5,607.57 391.86,708.86 28.88,50.14 174.59,22.02 140.37,-62.13 -63.81,-156.86 -93.44,-550.94 -256.11,-694.62 0,0 547.07,95.21 783.38,-13.85 171.74,-79.28 132.89,-394.74 -126.76,-383.13z"/>
  <path id="Path_91" class="fil65" d="M7365.73 4256.26c0,0 1.23,-63.94 -29.4,-109.67 -30.61,-45.74 -31.83,-94.33 -54.99,-92.74 -23.17,1.59 -0.24,114.52 -0.24,114.52 0,0 -29.39,-11.24 -50.51,-25.44 -21.11,-14.2 -85.15,-84.24 -100.13,-71.82 -25.37,21.15 15.5,140.42 37.76,164.26 22.34,23.86 132.54,90.51 132.54,90.51l324.58 326.98 48.53 -173.57 -308.15 -223.02z"/>
  <path id="Path_92" class="fil66" d="M8014.94 4227.39c-50.04,116.05 -141.65,329.25 -179.42,392.84 -47.33,79.65 -121.97,114.75 -209.35,55.65 -18.28,-12.36 -70.78,-55.61 -70.78,-55.61 7.77,-75.7 36.05,-138.98 84.8,-189.84l33.11 27.38c0,0 93.9,-240.71 169.44,-380.13 65.41,-120.64 248.37,-26.7 172.21,149.72z"/>
  <path id="Path_93" class="fil42" d="M7672.33 4457.94c0,0 -25.21,85.55 -31.11,80.58 -5.91,-4.95 4.5,-102.94 4.5,-102.94l26.61 22.36z"/>
  <path id="Path_94" class="fil22" d="M8231.17 3776.93l0 102.7 75.41 -60.72c0,0 23.18,-98.38 42.04,-171.45 11.82,-45.83 40.62,-200.9 -75.33,-193.64 -94.99,-167.43 -371.6,-63.8 -373.8,140.75 -2.64,246.02 -0.48,341.81 -0.48,341.81 156.43,8.97 244.46,-13.64 332.17,-159.44z"/>
  <path id="Path_95" class="fil67" d="M8308.19 3972.45c0,0 -70.14,-16.47 -72.58,-131.4 -2.43,-114.94 -0.72,-154.18 -0.72,-154.18l-154.51 -2.78c0,0 -1.69,128.1 -1.71,174.44 -0.07,112.65 -82.92,121.89 -82.92,121.89 0,0 14.16,92.96 154.17,100.84 109.31,6.15 158.26,-108.79 158.26,-108.79z"/>
  <path id="Path_96" class="fil68" d="M8270.92 3629.47c68.93,-2.66 57.69,98.24 -13.91,98.11 0,0 -41.59,143.34 -185.99,143.34 -117.27,0 -124.89,-167.07 -125.95,-200.4 -1.14,-35.53 -1.28,-152.28 -1.28,-152.28l329.82 -0.15 -2.69 111.38z"/>
  <path id="Path_97" class="fil22" d="M8276.26 3628.81c-28.56,4.71 -25.1,23.62 -32.87,21.97 -39.44,-8.39 -199.1,2.67 -219.65,-85.12 -25.58,54.85 -31.84,68.33 -88.16,83.06l0 -160.73 356.25 -34.18c0,0 -5.53,173.33 -15.57,174.99z"/>
  <path id="Path_98" class="fil17 str1" d="M8098.88 3774.63c0,0 -34.39,29.12 -74.23,1.85"/>
  <path id="Path_99" class="fil17 str2" d="M8076.17 3808.34c-10.7,4.94 -21.01,5.3 -30.2,0.38"/>
  <path id="Path_x0020_8_3" class="fil17 str3" d="M8263.88 3683.74c-0.7,-16.18 4.23,-29.04 20.74,-31.62"/>
  <path id="Path_100" class="fil69" d="M8292.54 3960.7c-88.03,53.92 -189.81,73.68 -284.55,15.14 -154.6,304.84 -193.13,668.58 -155.94,1070.59 225.44,89.26 414.92,71.71 576.23,-30.32l-135.75 -1055.41z"/>
  <path id="Path_101" class="fil70" d="M7195.46 6033.46c0,0 1.86,147 -119.27,201.96 -121.05,54.96 -207.3,51.65 -196.32,94.13 10.97,42.49 326.06,40.77 355.49,7.55 25.08,-28.27 79.61,-291.48 94.63,-271.35l-134.53 -32.29z"/>
  <path id="Path_102" class="fil62" d="M7283.45 6241.07c-18.57,-13.36 -34.17,63.67 -84.59,42.25 -50.42,-21.42 -10.67,-92.22 -42.4,-105.28 -31.73,-13.05 -93,57.15 -174.39,74.21 -81.38,17.04 -147.45,31.98 -166.23,63.65 -16.17,27.23 0,35.93 0,35.93 0,0 78.35,39.12 127.03,47.74 70.73,12.51 275.11,20.84 297.51,-1.97 13.76,-13.99 52.36,-149.86 43.07,-156.54z"/>
  <path id="Path_103" class="fil63" d="M6811.42 6319.11c-15.35,25.02 8.87,38.04 11.77,39.48l11.68 4.98c22.16,9.22 72.17,28.97 109.12,36.03 67.76,12.96 277.57,20.63 300.14,-1.64 3.96,-3.91 8.87,-18.21 13.61,-36.79l-14.39 1.57c-69.29,7.35 -223.96,20.62 -300.28,2.64 -67.76,-15.96 -104.84,-42.21 -121.76,-57.55 -4.11,3.54 -7.44,7.28 -9.88,11.28z"/>
  <path id="Path_104" class="fil71" d="M8453.06 4882.23c0,0 156.38,330.23 -63.38,443.63 -212.52,109.66 -848.73,-20.04 -848.73,-20.04 0,0 11.37,91.53 0,173.16 -29.68,213.21 -170.9,568.42 -200.77,613.05 -41.31,61.73 -167.17,15.18 -169.54,-36.21 -2.38,-51.4 94.87,-707.79 109.67,-832.95 14.71,-125.17 61.15,-143.36 196.82,-177.59 31.17,-7.86 399.74,-99.45 433.5,-96.78 290.11,22.94 542.44,-66.28 542.44,-66.28z"/>
  <path id="Path_105" class="fil72" d="M8281.65 5291.78c-210.4,23.58 -767.44,-25.03 -789.81,-2.95 -21.36,21.09 -17.79,387.86 -65.71,600.16l7.28 -20.05c45.06,-125.15 91.85,-277.36 107.53,-389.96 11.37,-81.63 0,-173.16 0,-173.16l25.66 4.96c120.93,22.72 636.06,111.59 823.07,15.08 101.34,-52.29 142.69,-139.17 124.06,-260.62 -32.09,137.28 -109.45,212.79 -232.09,226.53z"/>
  <path id="Path_106" class="fil66" d="M8288.68 3960.95c-145.8,477.6 -233.23,1154.7 222.11,1036.91 -241.87,-445.34 86.95,-645.78 12.41,-875.95 -25.48,-78.7 -232.62,-167.14 -234.52,-160.96z"/>
  <path id="Path_107" class="fil42" d="M8453.13 4159.26c-164.78,24.87 -28.94,312.58 -83.34,355.92 -54.39,43.34 -149.07,48.02 -159.28,74.5 -20.51,53.22 78.67,187.57 297.55,403.05l2.75 5.13c-210.71,-387.94 11.65,-590.04 23.21,-787.84 -24.41,-38.28 -51.38,-55.2 -80.88,-50.76z"/>
  <path id="Path_108" class="fil66" d="M8015.72 3972.48c-55.64,139.54 -82.39,249.04 -107.34,453.87 -20.81,170.59 -10.38,522.63 -10.38,522.63l-68.76 13.52c0,0 -49.15,-543.88 -32.72,-613.91 27.58,-117.52 46.27,-186.18 82.68,-293.6 20.06,-58.97 136.53,-82.52 136.53,-82.52z"/>
  <path id="Path_109" class="fil73" d="M8258.07 4503.14c0,0 -89.78,-89.88 -120.86,-100.31 -31.09,-10.43 -201.39,-22.97 -200.24,0.61 1.31,25.25 110.89,23.8 121.02,36.23 10.13,12.41 24.23,109.11 62.53,118.64 38.23,9.54 117.48,37.76 117.48,37.76l352.74 182.25 -37.58 -182.24 -295.08 -92.93z"/>
  <path id="Path_110" class="fil66" d="M8528.25 4122.55c107,151.01 198.35,381.04 233.42,470.72 35.06,89.68 -0.3,224.95 -154.5,198.39 -18.35,-3.16 -48.22,-14.78 -48.22,-14.78 -56.68,-77.72 -66.64,-144.44 -45.47,-203.85 0,0 19.94,8.42 19.94,8.42 0,0 -153.25,-271.64 -190.68,-344.46 -62.5,-121.61 91.27,-247.48 185.52,-114.44z"/>
  <path id="Path_111" class="fil42" d="M8533.42 4581.45c0,0 77.85,38.02 68.05,21.31 -9.79,-16.73 -97.7,-74.1 -97.7,-74.1l29.65 52.79z"/>
  <path id="Rectangle_28" class="fil74" d="M6907.27 4079.11c-3.88,-15.57 5.59,-31.33 21.16,-35.21l276.65 -68.99c15.58,-3.88 31.33,5.59 35.22,21.16l100.45 402.91c3.88,15.56 -5.59,31.33 -21.15,35.21l-276.66 68.97c-15.56,3.89 -31.33,-5.59 -35.21,-21.15l-100.46 -402.9z"/>
  <path id="Rectangle_29" class="fil75" d="M6918.07 4085.59c-3.88,-15.56 5.6,-31.32 21.16,-35.21l276.65 -68.97c15.57,-3.88 31.33,5.59 35.21,21.16l100.46 402.91c3.88,15.56 -5.59,31.32 -21.15,35.21l-276.66 68.97c-15.56,3.88 -31.33,-5.59 -35.21,-21.16l-100.45 -402.9z"/>
  <path id="Rectangle_30" class="fil76" d="M6929.87 4089.13c-3.49,-14 5.03,-28.2 19.04,-31.69l260.18 -64.87c14.02,-3.5 28.2,5.03 31.7,19.04l90.82 364.28c3.49,14.01 -5.03,28.2 -19.05,31.68l-260.18 64.87c-14,3.49 -28.2,-5.03 -31.68,-19.04l-90.82 -364.28z"/>
  <polygon id="Rectangle_31" class="fil77" points="4517.16,4666.44 4651.74,4666.44 4651.74,6374.25 4517.16,6374.25 "/>
  <polygon id="Rectangle_32" class="fil78" points="3198.93,4722.59 4262.06,4722.59 4262.06,5039.77 3376.08,5039.77 3376.08,6374.25 3198.93,6374.25 "/>
  <polygon id="Rectangle_33" class="fil79" points="3192.05,4722.59 3286.35,4722.59 3286.35,6374.25 3192.05,6374.25 "/>
  <polygon id="Rectangle_34" class="fil77" points="7820.39,4722.59 8009,4722.59 8009,6374.25 7820.39,6374.25 "/>
  <polygon id="Rectangle_35" class="fil79" points="7820.39,4666.44 7938.27,4666.44 7938.27,6374.25 7820.39,6374.25 "/>
  <polygon id="Rectangle_36" class="fil78" points="6259.4,4722.59 7897.91,4722.59 7897.91,5035.62 6479.92,5035.62 6479.92,6374.25 6259.4,6374.25 "/>
  <polygon id="Rectangle_37" class="fil79" points="3331.13,4666.44 6264.98,4666.44 6264.98,5140.67 3331.13,5140.67 "/>
  <polygon id="Rectangle_38" class="fil77" points="6197.7,4722.59 6332.28,4722.59 6332.28,5140.67 6197.7,5140.67 "/>
  <polygon id="Rectangle_39" class="fil79" points="6259.82,4722.59 6365.91,4722.59 6365.91,6374.25 6259.82,6374.25 "/>
  <path id="Rectangle_40" class="fil77" d="M6276.74 4750.66c0,-46.5 37.7,-84.21 84.2,-84.21l1710.71 0c46.5,0 84.2,37.71 84.2,84.21l0 0c0,46.5 -37.7,84.2 -84.2,84.2l-1710.71 0c-46.5,0 -84.2,-37.7 -84.2,-84.2l0 0z"/>
  <polygon id="Rectangle_41" class="fil77" points="3297.49,4700.13 6231.35,4700.13 6231.35,4868.55 3297.49,4868.55 "/>
  <path id="Rectangle_42" class="fil79" d="M3050.76 4750.66c0,-46.5 37.69,-84.21 84.2,-84.21l3258.9 0c46.51,0 84.21,37.71 84.21,84.21l0 0c0,46.5 -37.7,84.2 -84.21,84.2l-3258.9 0c-46.5,0 -84.2,-37.7 -84.2,-84.2l0 0z"/>
  <path id="Path_112" class="fil80" d="M3576.29 5954.97l-93.1 302.27 195.29 7.08c0,0 -22.05,-103.4 9.43,-200.33 25.26,-77.81 45.86,-116.64 45.86,-116.64l-157.48 7.61z"/>
  <path id="Path_113" class="fil81" d="M3673.36 6181.26c0,0 74.54,69.08 146.22,94.67 71.68,25.59 99.12,25.87 104.23,35.5l0.93 1.84c14.75,30.43 5.8,70.87 -157.59,73.11 -39.71,0.54 -81,-22.53 -190.61,-46.94l-7.92 42.67c-61.34,-0.81 -97.13,-10.48 -107.38,-29.01 -15.44,-27.71 10.8,-164.38 28.9,-166.97 18.09,-2.59 21.67,53 70.28,54.21 48.67,1.21 112.94,-59.08 112.94,-59.08z"/>
  <path id="Combined_x0020_Shape_3" class="fil82" d="M3817.86 6275.3c-2.21,1.92 -4.89,3.95 -8.03,5.87 -10.89,6.68 -27.31,12 -49.38,6.97 -11.22,-2.57 -23.71,-9.74 -36,-18.78 -12.34,-9.08 -24.71,-20.22 -35.71,-31.01 -10.99,-10.8 -20.66,-21.28 -27.56,-29.07 -3.46,-3.89 -6.22,-7.11 -8.13,-9.36 -0.31,-0.35 -0.59,-0.68 -0.84,-0.99 1.61,-1.25 3.17,-2.46 4.64,-3.64 0.21,0.26 0.44,0.53 0.69,0.82 1.89,2.21 4.62,5.4 8.05,9.26 6.84,7.71 16.41,18.1 27.28,28.78 10.89,10.68 23.05,21.62 35.07,30.46 12.09,8.9 23.81,15.49 33.82,17.78 20.4,4.66 35.25,-0.26 44.99,-6.24 1.74,-1.07 3.34,-2.18 4.76,-3.28 2.11,0.85 4.22,1.67 6.34,2.43z"/>
  <path id="Path_114" class="fil83" d="M3131.2 5008.78c0,0 775.55,62.02 882.41,65.33 106.85,3.3 188.5,155.83 105.75,296.61 -92.94,158.04 -345.44,613.01 -394.81,718.2 -41.76,88.94 -231.51,52.49 -197.36,-83.36 40.77,-162.6 116.74,-527.39 279.05,-670.9 0,0 -394.74,143.11 -617.08,4.32 -126.85,-79.18 -57.96,-330.19 -57.96,-330.19z"/>
  <path id="Path_115" class="fil84" d="M4119.38 5370.72l-12.1 20.73c-47.03,81.29 -122.98,218.63 -195.49,352.38l3.81 -12.25c56.09,-178.45 143.21,-388.68 180.46,-452.82 13.06,-22.48 30.83,-45.39 53.32,-68.74 9.55,48.98 2.3,105.72 -30.01,160.69z"/>
  <path id="Path_116" class="fil80" d="M4420.29 5958.49c0,0 51.85,230.54 119.33,255.22 25.98,9.5 -199.12,36.63 -199.12,36.63l-56.51 -221.19 136.3 -70.66z"/>
  <path id="Path_117" class="fil81" d="M4307.98 6172.45l-3.76 194.63 77.59 0.59 0.79 -43.75c0,0 60.48,36.26 101.42,49.01 55.08,17.2 272.67,8.19 297.24,-18.01 24.59,-26.32 25.12,-68.2 -25.36,-73.36 -50.46,-5.14 -133.92,-20.46 -169.85,-47.96 -43.46,-33.14 -60,-85.71 -72.62,-85.76 -19.32,-0.07 -20.82,61.78 -118.88,62.65 -37.33,0.33 -86.57,-38.04 -86.57,-38.04z"/>
  <path id="Path_118" class="fil82" d="M4493.36 6165.19c0,0 50.04,78.08 79.78,89.39 29.75,11.19 53.73,-1.37 53.73,-1.37 0,0 -51.3,-20.44 -71.11,-56.11 -44.88,-80.81 -53.86,-39.7 -62.39,-31.91z"/>
  <path id="Path_119" class="fil83" d="M3195.39 5071.44c0,0 -1.08,247.78 165.4,310.07 166.49,62.27 708.61,38.84 708.61,38.84 0,0 172.03,632.98 213.25,694.63 41.22,61.66 236.69,68.04 226.12,-73.96 -10.64,-142 -86.93,-669.17 -101.68,-794.19 -14.68,-125.03 -61.03,-154.97 -196.37,-177.37 -47.58,-7.87 -27.38,-20.48 -333.21,-34.81 -65.68,-3.07 -175.88,21.51 -277.16,32.65 -101.28,11.14 -404.96,4.14 -404.96,4.14z"/>
  <path id="Path_120" class="fil84" d="M3736.48 5076.77l0 -28.77 13.56 -2.03c49.3,-7.32 94.11,-12.88 127.46,-11.33l35.16 1.71c269.15,13.62 252.37,25.54 298.04,33.1l8.8 1.49c125.69,21.77 171.17,52.19 186.57,167.77l4.31 34.79c20.37,160.22 88.39,634.04 98.39,767.52 0.79,10.68 0.42,20.52 -0.97,29.57l-39.62 -199.54c-58.4,-295.83 -91.12,-471.11 -98.17,-525.85l-1.47 -11.38c-13.19,-97.16 -47.71,-217.73 -159.09,-209.87l-9.62 0.82c-78.43,5.96 -227.14,-9.08 -446.15,-45.14l-17.2 -2.86z"/>
  <path id="Oval_10" class="fil85" d="M4573.67 5278.11c9.69,-41.95 -1.88,-80.45 -25.83,-85.98 -23.95,-5.53 -51.21,24 -60.9,65.95 -9.69,41.95 1.88,80.44 25.82,85.97 23.95,5.53 51.22,-24 60.9,-65.95z"/>
  <path id="Path_121" class="fil86" d="M3315.49 4742.4c0,0 181.43,42 179.59,58.48 -1.8,16.57 -81.68,19.12 -81.68,19.12 0,0 147.66,95.35 135.9,113.95 -11.75,18.61 -108.02,39.56 -147.97,24.56 -39.97,-15.01 -143.55,-124.2 -143.55,-124.2l57.71 -91.91z"/>
  <path id="Path_122" class="fil66" d="M3317.13 4204.89c-60.76,75 -267.97,304.09 -267.97,304.09 0,0 207.21,147.57 259.38,178.8 85.56,51.16 -1.45,186.9 -64.2,171.82 -85.03,-20.48 -299.66,-168.55 -400.51,-228.47 -100.84,-59.92 -62.26,-156.67 12.35,-244.95 57.33,-67.82 181.92,-206.74 269.59,-328.69 87.23,-121.34 309.29,1.88 191.36,147.41z"/>
  <path id="Path_x0020_15" class="fil42" d="M3049.17 4508.98c0,0 -58.34,56.2 -52.28,60.56 6.07,4.35 76.36,-43.27 76.36,-43.27l-24.08 -17.28z"/>
  <path id="Path_123" class="fil87" d="M3678.91 3654.3c50.96,5.58 47.34,95.27 -14.69,99.95 -12.68,86.46 -57.89,127.65 -113.02,132.41l3.05 130.77 -243.83 -0.14c0,0 68.66,-92.38 65.25,-218.85 -3.43,-126.47 2.29,-245.28 2.29,-245.28l315.83 5.67 -14.88 95.47z"/>
  <path id="Path_124" class="fil88" d="M3579.15 3410.36c187.86,47.42 110.36,247.72 110.36,247.72 -56.76,-7.74 -111.38,61.13 -132.09,128.68 -59.9,61.57 -137.47,61.46 -189.05,25.6 0,0 -70.98,-219.52 -47.77,-292.62 23.22,-73.1 87.32,-152.59 258.55,-109.38z"/>
  <path id="Path_125" class="fil66" d="M3135.07 4046.61c-16.87,28.71 -28.95,144.38 0,602.59 14.99,237.28 -48.78,471.14 -32.3,574.08 16.48,102.96 129.74,115.25 129.74,115.25l66.05 -214.88 31.07 214.88c0,0 468.38,-43.79 509.42,-150.42 41.13,-106.86 -10.53,-358.06 -22.81,-594.6 -12.33,-237.48 -3.07,-481.24 -25.78,-518.18 -45.3,-73.74 -161.91,-108.19 -234.27,-119.22 -91.83,-13.99 -210.4,-14.53 -280.88,7.82 -70.48,22.33 -123.37,53.98 -140.24,82.69z"/>
  <path id="Path_126" class="fil42" d="M3611.62 4209.78c36.96,272.7 86.39,464.05 148.28,574.06 25.59,45.47 51.58,64.23 77.98,56.25l-6.27 -60.44c-6.25,-61.16 -12.18,-124.16 -15.4,-186.15 -2.25,-43.23 -3.77,-86.67 -4.91,-129.03l-199.68 -254.69z"/>
  <path id="Path_127" class="fil89" d="M3275.3 3963.92c-4.26,1.35 -8.4,2.76 -12.4,4.22 101.2,44.12 268.29,38.23 359.13,2.29 -23.67,-6.68 -46.36,-11.35 -65.85,-14.32 -91.83,-13.99 -210.38,-14.53 -280.88,7.82z"/>
  <path id="Path_128" class="fil90" d="M4516.55 4445.98c0,0 150.71,-100.61 177.34,-120.81 26.54,-20.12 59.87,-172.7 39.22,-194.11 -9.98,-10.35 -85.37,59.34 -98.82,68.67 -13.37,9.24 -81.73,50.43 -81.73,50.43 0,0 19.34,-116.78 2.69,-126.2 -12.32,-6.86 -36.96,23.2 -40.25,54.97 -3.3,31.77 -37.57,73.2 -41.99,121.41 -2,21.06 -22.73,61.3 -22.73,61.3l66.28 84.34z"/>
  <path id="Path_129" class="fil66" d="M3619.02 4253.05c57.75,119.99 155.83,295.42 209.69,398.28 63.75,121.72 139.71,173.29 292.91,82.98 128.31,-75.64 313.33,-197.3 408.93,-263.42 88.96,-61.54 -16.2,-213.43 -100.24,-162.11 -111.49,67.99 -396.61,202.74 -396.61,202.74 0,0 -146.72,-268.02 -207.64,-396.69 -77.49,-163.55 -318.8,-94 -207.04,138.22z"/>
  <path id="Path_130" class="fil42" d="M4033.72 4511.52c0,0 26.83,94.49 33.16,90.77 6.33,-3.74 -4.44,-104.31 -4.44,-104.31l-28.71 13.54z"/>
  <polygon id="Path_131" class="fil20" points="3439.33,5436.77 3304.45,6391.09 3375.17,6390.16 3510.06,5446.75 "/>
  <polygon id="Path_132" class="fil21" points="3889.17,5436.77 4024.05,6391.09 3953.34,6390.16 3818.45,5446.75 "/>
  <polygon id="Path_133" class="fil20" points="3028.11,5436.77 2893.23,6391.09 2963.95,6390.16 3098.84,5446.75 "/>
  <path id="Path_134" class="fil20" d="M3940.76 5492.91c61.48,0 111.34,-49.85 111.34,-111.34l0 0c0,-61.5 -49.85,-111.34 -111.34,-111.34l-445.14 0c-67.44,0 -123.81,-51.32 -130.12,-118.47l-71.18 -756.69c-6.32,-67.15 -62.68,-118.46 -130.12,-118.46l-279.37 0c-76.14,0 -136.15,64.8 -130.33,140.72l73.38 954.88c5.23,68.11 62.01,120.7 130.31,120.7l982.57 0z"/>
  <path id="Combined_x0020_Shape_4" class="fil21" d="M4052.07 5380.62c-0.61,0.01 -1.23,0.01 -1.83,0.01l-612.77 0c-68.28,0 -125.07,-52.57 -130.32,-120.66l-74.35 -964.93c34.7,20.72 59.15,57.13 63.19,100.01l71.11 753.94c6.34,67.13 62.7,118.43 130.13,118.43l443.81 0c61.33,0 111.06,49.72 111.06,111.05 0,0.72 -0.01,1.44 -0.03,2.16z"/>
  <path id="Rectangle_43" class="fil91" d="M6577.39 4650.79c0,-4.87 -3.93,-8.8 -8.79,-8.8l-991.78 0c-4.87,0 -8.81,3.94 -8.81,8.8l0 12.92c0,4.87 3.94,8.81 8.81,8.81l991.78 0c4.86,0 8.79,-3.94 8.79,-8.81l0 -12.92z"/>
  <path id="Rectangle_44" class="fil75" d="M6577.49 4650.79c0,-4.87 -3.94,-8.8 -8.79,-8.8l-381.07 0c-4.86,0 -8.8,3.94 -8.8,8.8l0 12.92c0,4.87 3.95,8.81 8.8,8.81l381.07 0c4.86,0 8.79,-3.94 8.79,-8.81l0 -12.92z"/>
  <path id="Rectangle_45" class="fil75" d="M6649.44 4224.19c3.24,-25.37 -16.51,-47.83 -42.09,-47.83l-657.89 0c-21.36,0 -39.38,15.87 -42.09,37.05l-48.93 382.08c-3.25,25.37 16.51,47.82 42.09,47.82l657.89 0c21.35,0 39.38,-15.86 42.09,-37.05l48.93 -382.08z"/>
  <path id="Rectangle_46" class="fil92" d="M6629.4 4224.19c3.25,-25.37 -16.51,-47.83 -42.08,-47.83l-643.99 0c-21.35,0 -39.38,15.87 -42.09,37.05l-48.93 382.08c-3.24,25.37 16.51,47.82 42.09,47.82l643.99 0c21.35,0 39.37,-15.86 42.1,-37.05l48.92 -382.08z"/>
  <path id="Rectangle_47" class="fil76" d="M6606.43 4241.49c2.92,-22.83 -14.86,-43.04 -37.89,-43.04l-610.11 0c-19.22,0 -35.45,14.27 -37.88,33.35l-44.09 344.64c-2.92,22.83 14.87,43.04 37.89,43.04l610.11 0c19.22,0 35.45,-14.29 37.89,-33.35l44.08 -344.64z"/>
  <path id="Path_135" class="fil93" d="M4993.85 4764.86c0,0 160.32,37.4 158.69,52.08 -1.59,14.76 -72.17,17.02 -72.17,17.02 0,0 130.48,84.91 120.09,101.47 -10.38,16.57 -95.46,35.22 -130.76,21.87 -35.33,-13.35 -126.86,-110.58 -126.86,-110.58l-256.82 -137.93 85.84 -113.21 221.99 169.29z"/>
  <path id="Path_136" class="fil94" d="M4995.31 4286.24c-53.71,66.78 -236.81,270.77 -236.81,270.77 0,0 36.15,27.12 36.15,27.12l-117.55 142.6c0,0 -75.06,-46 -100.04,-60.94 -89.13,-53.36 -55.03,-139.51 10.92,-218.12 50.65,-60.38 160.76,-184.08 238.23,-292.68 77.09,-108.05 273.32,1.66 169.11,131.26z"/>
  <path id="Path_x0020_15_2" class="fil42" d="M4758.5 4557.01c0,0 -51.56,50.05 -46.2,53.93 5.36,3.88 67.47,-38.54 67.47,-38.54l-21.28 -15.39z"/>
  <polygon id="Path_x0020_76" class="fil95" points="4787.36,4569.22 4634.14,4720.9 4710.75,4771.03 4816.01,4590.86 "/>
  <path id="Path_137" class="fil96" d="M5276.65 5932l-82.88 266.98 139.31 6.26c0,0 -19.64,-91.33 8.39,-176.93 22.48,-68.73 40.83,-103.02 40.83,-103.02l-105.65 6.72z"/>
  <path id="Path_138" class="fil81" d="M5334.2 6127.06c0,0 -2.91,67.96 20.83,89.46 23.73,21.46 149.62,100.76 160.18,116.73 10.55,15.99 -4.93,35.49 -4.93,35.49 0,0 -128.53,20.16 -189.17,-10.95 -43.77,-22.47 -75.04,-40.82 -75.04,-40.82l-13.44 34.52 -70.18 -10.08c0,0 -21.63,-54.8 -12.34,-82.06 9.3,-27.25 57.26,-154.6 57.26,-154.6 0,0 126.84,22.29 126.84,22.29z"/>
  <path id="Path_139" class="fil97" d="M4871.29 5021.96c104.78,10.22 620.9,133.15 727.16,154.98 106.27,21.83 196.12,139.96 115.08,276.73 -91.03,153.54 -348.32,630.69 -348.32,630.69 -1.59,0.39 -3.15,1.07 -4.75,1.07 -52.33,0 -98.99,-7.17 -143.92,-38.48 0,0 68.26,-500.33 227.2,-639.76 0,0 -410.43,147.57 -615.68,-13.45 -121.08,-94.99 -72.26,-383.06 43.22,-371.79z"/>
  <path id="Combined_x0020_Shape_5" class="fil84" d="M5676.7 5213.21l-28.18 353.91c2.32,-4.13 4.62,-8.2 6.88,-12.23l26.85 -337.17c-1.81,-1.55 -3.67,-3.04 -5.55,-4.5z"/>
  <path id="Path_140" class="fil98" d="M6048.28 5910.92c0,0 45.7,203.57 105.17,225.36 22.9,8.38 -141.29,32.33 -141.29,32.33l-49.81 -195.3 85.92 -62.39z"/>
  <path id="Path_141" class="fil81" d="M5991.24 6112.48l43.36 254.86 75.16 -11.88 -9.28 -63.02c0,0 32.96,54.9 69.72,52.53 36.88,-2.38 221.26,-30.18 221.26,-30.18 0,0 4.15,-61.04 -80.67,-74.98 -70.55,-11.59 -190.84,-147.78 -190.84,-147.78l-128.71 20.45z"/>
  <path id="Path_142" class="fil99" d="M4959.21 4988.25c0,0 -151.26,320.38 61.31,430.38 205.57,106.39 752.57,-30.87 752.57,-30.87 0,0 -11,88.8 0,167.99 28.72,206.84 169.96,461.31 182.81,503.25 6.47,21.11 164,-10.09 164,-35.14 0,-25.05 -80.37,-595.16 -94.68,-716.58 -14.23,-121.44 -59.17,-139.07 -190.38,-172.27 -30.15,-7.62 -420.87,-96.49 -453.54,-93.9 -280.62,22.25 -422.08,-52.87 -422.08,-52.87z"/>
  <path id="Path_143" class="fil84" d="M5381.3 5041.12c32.67,-2.59 423.39,86.28 453.54,93.9l21.54 5.53c111.94,29.28 153.42,51.12 167.83,158.62l3.88 30.86c11.81,90.05 43.73,301.81 68.99,478.11 -28.5,-64.8 -52.09,-136.69 -70.76,-215.69 -43.52,-184.11 -34.21,-335.3 -45.89,-361.78 -11.69,-26.48 -583.26,-110.99 -681.47,-128.44 -42.75,-7.59 -66.86,-26.42 -72.34,-56.49 47.46,1.33 99.02,-0.2 154.68,-4.62z"/>
  <path id="Path_144" class="fil100" d="M5306.91 3758.86c45.4,4.97 42.19,84.91 -13.09,89.08 -11.29,77.05 -51.58,113.76 -100.71,118l2.73 116.54 -217.29 -0.13c0,0 61.19,-82.32 58.14,-195.03 -3.05,-112.72 2.05,-218.59 2.05,-218.59l281.42 5.06 -13.26 85.07z"/>
  <path id="Path_145" class="fil101" d="M5316.81 3764.84c-52.89,-20.93 -91.95,69.22 -132.42,131.88 -40.47,62.65 -145.3,52.01 -159.75,0 -54.71,-113.93 -101.85,-268.81 -38.01,-281.51 8.99,-164.65 439.41,-125.78 330.19,149.63z"/>
  <path id="Combined_x0020_Shape_6" class="fil33" d="M5021.83 3549.96l93.27 0 1.31 0 0.88 0.98c82.86,92.61 101.41,228.98 62.69,351.99 -2.99,3.87 -6.25,7.4 -9.74,10.63 43.37,-124.13 26.76,-263.85 -56.47,-357.7l-98.87 0c2.2,-2.04 4.51,-4.01 6.93,-5.9z"/>
  <ellipse id="Oval_11" class="fil102" cx="5078.99" cy="3552.91" rx="51.88" ry="51.94"/>
  <path id="Path_146" class="fil103" d="M5360.05 4102.16c48.09,70.56 128.26,310.04 132.81,363.91 5.11,62.15 -61.61,161.15 -62.7,251.11 -0.97,89.98 49.77,315.19 34.53,340.5 -15.13,25.31 -517.45,171.62 -545.74,159.59 -28.3,-12.02 -125.99,-141.69 -103.66,-194.38 22.45,-52.71 115.17,-172.23 104.55,-244.04 -10.48,-71.79 -71.4,-336.8 -101.65,-427 -30.13,-90.2 -20.08,-184.89 36.14,-223.71 27.83,-19.2 102.07,-73.77 234.28,-73.51 132.21,0.24 267.7,42.04 271.44,47.51z"/>
  <path id="Path_147" class="fil42" d="M5467.87 4408.23l-230.51 -165.62 0.07 30.26c0.85,186.8 12.61,285.76 208.26,591.89l-4.53 -31.2c-6.38,-45.29 -11.32,-87.7 -11,-116.37 0.69,-56.76 27.5,-117.11 45.91,-169.54l-8.21 -139.41z"/>
  <path id="Path_x0020_68" class="fil104" d="M5210.75 4049.48c0,0 5.56,30.34 -18.79,30.34 -24.37,0 -187.74,5.38 -209.87,-4.22 -22.12,-9.6 -15.48,-26.12 -15.48,-26.12l244.13 0z"/>
  <path id="Path_148" class="fil105" d="M6025.04 4465.93c0,0 133.04,-88.8 156.55,-106.63 23.43,-17.75 52.85,-152.42 34.62,-171.3 -8.8,-9.15 -75.37,52.36 -87.24,60.6 -11.79,8.16 -72.15,44.51 -72.15,44.51 0,0 17.08,-103.07 2.38,-111.39 -10.88,-6.05 -32.63,20.48 -35.54,48.51 -2.91,28.04 -33.16,64.61 -37.07,107.15 -1.76,18.59 -8.64,42.68 -8.64,42.68l-369.15 158.52 38.63 172.37 377.61 -245.03z"/>
  <path id="Path_149" class="fil94" d="M5232.72 4295.65c50.97,105.91 137.56,260.73 185.11,351.51 56.27,107.43 123.33,152.95 258.59,73.23 15.83,-9.32 50.08,-30.12 50.08,-30.12l-83.74 -185.92c0,0 -43.95,19.42 -43.95,19.42 0,0 -129.53,-236.54 -183.31,-350.1 -68.41,-144.35 -281.44,-82.96 -182.78,121.98z"/>
  <path id="Path_150" class="fil42" d="M5598.8 4523.77c0,0 23.68,83.39 29.28,80.1 5.59,-3.3 -3.93,-92.06 -3.93,-92.06l-25.35 11.96z"/>
  <polygon id="Path_x0020_75" class="fil95" points="5641.55,4496.13 5699.88,4727.59 5786.65,4680.66 5672.78,4478.11 "/>
  <path id="Path_151" class="fil101" d="M5084.55 3514.53c0,0 -48.9,-62.59 -105.36,-46.17 -56.47,16.42 -107.55,117.07 -83.3,211.69 24.13,94.63 4.23,148.59 -25.04,212.37 -78.65,171.55 193.62,280.47 193.62,280.47 0,0 -21.24,-127.11 20.08,-203.87 42.57,-79.05 66.73,-180.43 66.73,-242.45 0,-107.87 -66.73,-212.03 -66.73,-212.03z"/>
  <polygon id="Path_152" class="fil21" points="5076.52,5436.77 5211.4,6391.09 5140.68,6390.16 5005.79,5446.75 "/>
  <polygon id="Path_153" class="fil21" points="5469.02,5436.77 5603.91,6391.09 5533.2,6390.16 5398.31,5446.75 "/>
  <polygon id="Path_154" class="fil20" points="4607.99,5436.77 4473.1,6391.09 4543.81,6390.16 4678.7,5446.75 "/>
  <path id="Path_155" class="fil20" d="M5520.62 5492.91c61.5,0 111.33,-49.85 111.33,-111.34l0 0c0,-61.5 -49.84,-111.34 -111.33,-111.34l-445.13 0c-67.45,0 -123.82,-51.32 -130.13,-118.47l-71.17 -756.69c-6.32,-67.15 -62.69,-118.46 -130.14,-118.46l-279.37 0c-76.12,0 -136.15,64.8 -130.31,140.72l73.36 954.88c5.23,68.11 62.02,120.7 130.33,120.7l982.56 0z"/>
  <path id="Combined_x0020_Shape_7" class="fil21" d="M5631.94 5380.62c-0.62,0.01 -1.23,0.01 -1.85,0.01l-612.76 0c-68.29,0 -125.07,-52.57 -130.32,-120.66l-74.34 -964.93c34.7,20.72 59.15,57.13 63.19,100.01l71.12 753.94c6.33,67.13 62.69,118.43 130.12,118.43l443.81 0c61.33,0 111.04,49.72 111.04,111.05 0,0.72 0,1.44 -0.01,2.16z"/>
 </g>
</svg>
