<?xml version="1.0" encoding="UTF-8"?>
<!DOCTYPE svg PUBLIC "-//W3C//DTD SVG 1.1//EN" "http://www.w3.org/Graphics/SVG/1.1/DTD/svg11.dtd">
<!-- Creator: CorelDRAW X7 -->
<svg xmlns="http://www.w3.org/2000/svg" xml:space="preserve" width="8.5in" height="11in" version="1.1" style="shape-rendering:geometricPrecision; text-rendering:geometricPrecision; image-rendering:optimizeQuality; fill-rule:evenodd; clip-rule:evenodd"
viewBox="0 0 8500 11000"
 xmlns:xlink="http://www.w3.org/1999/xlink">
 <defs>
  <style type="text/css">
   <![CDATA[
    .fil30 {fill:none}
    .fil12 {fill:black}
    .fil22 {fill:#080305}
    .fil19 {fill:#0B0635}
    .fil25 {fill:#190444}
    .fil6 {fill:#1A1A1A}
    .fil11 {fill:#1B191B}
    .fil4 {fill:#1D1647}
    .fil23 {fill:#231347}
    .fil3 {fill:#2A1656}
    .fil14 {fill:#2C2A30}
    .fil2 {fill:#31185E}
    .fil29 {fill:#333333}
    .fil8 {fill:#666B6D}
    .fil15 {fill:#755FAA}
    .fil26 {fill:#8E8D8E}
    .fil28 {fill:#999999}
    .fil13 {fill:#9E4AFF}
    .fil24 {fill:#ABABAB}
    .fil17 {fill:#B08174}
    .fil9 {fill:#C5A2FD}
    .fil20 {fill:#CCDDE7}
    .fil27 {fill:#D1D1D3}
    .fil21 {fill:#DC4070}
    .fil0 {fill:#E2B897}
    .fil5 {fill:#EAB186}
    .fil10 {fill:#F2B588}
    .fil1 {fill:#F8BD8C}
    .fil7 {fill:#FCFCFC}
    .fil16 {fill:#FF7C90}
    .fil18 {fill:white}
   ]]>
  </style>
 </defs>
 <g id="Layer_x0020_1">
  <metadata id="CorelCorpID_0Corel-Layer"/>
  <path class="fil0" d="M7561 8725l-5473 0 97 -2685 2 -81 1 -17 4500 -206 647 -29 19 250 82 1103 0 1 30 401c0,0 0,0 0,0l13 174 82 1089z"/>
  <path class="fil0" d="M4952 8725l-2866 0 51 -2729 1 -54 49 17 525 180 1303 448c0,0 1,0 2,0l863 297 72 1841z"/>
  <polygon class="fil1" points="5514,-1136 3941,-952 3903,-2011 3900,-2084 3895,-2223 5182,-2374 5266,-2384 5336,-2031 "/>
  <path class="fil2" d="M3699 -1299c0,0 -1833,764 -1884,916 -50,153 -254,586 -254,586 0,0 891,2164 662,2902 -229,738 -77,1960 -77,2342 0,381 -152,534 128,636 280,102 1196,51 1705,0 509,-51 1553,16 1782,59 229,43 1604,-186 1604,-186 0,0 178,-968 127,-1451 -51,-484 18,-1629 9,-1808 -9,-178 87,-254 1,-687 -87,-433 346,-2800 346,-2800l-2113 -770 -2036 261z"/>
  <polygon class="fil3" points="4656,-1388 4392,-504 3229,-1091 3511,-1388 "/>
  <path class="fil4" d="M3263 -1097l1116 563 249 -834 -1108 0 -257 271zm1142 622l-1211 -610 308 -324 1182 0 -279 934z"/>
  <polygon class="fil3" points="4429,-1388 4786,-504 6113,-1439 5796,-1780 "/>
  <path class="fil4" d="M4457 -1375l338 838 1286 -905 -292 -315 -1332 382zm319 903l-374 -930 1400 -402 342 369 -1368 963z"/>
  <path class="fil2" d="M2468 -759c0,0 783,304 711,3375l2853 -655 350 1445c0,0 -3131,1355 -3944,1332 -812,-22 -1338,-3726 -1170,-4132 167,-407 213,-985 1169,-1347l31 -18z"/>
  <polygon class="fil1" points="6183,2034 6918,1759 6735,2869 6161,2897 6035,2112 "/>
  <polygon class="fil1" points="3891,2494 3291,2633 3267,2487 3227,2246 3268,2261 "/>
  <path class="fil2" d="M7182 -599l-471 3350 -2989 -402 -353 1473c0,0 4048,983 4848,715 800,-268 424,-3952 212,-4421 -212,-469 -355,-836 -637,-925 -283,-90 -610,210 -610,210l0 0z"/>
  <path class="fil5" d="M5336 -2031c-63,145 -173,279 -342,339 -374,135 -842,-146 -1091,-319l-3 -73c22,3 46,6 73,9 165,13 411,9 720,-68 221,-56 380,-145 489,-231l84 -10 70 353z"/>
  <path class="fil1" d="M5518 -3751c69,868 -341,1610 -978,1660 -638,50 -1210,-612 -1278,-1480 -69,-867 392,-1612 1029,-1662 637,-50 1158,614 1227,1482z"/>
  <path class="fil6" d="M4647 -1848c-610,91 -1208,-540 -1336,-1406 -12,-83 -19,-166 -23,-247 142,842 731,1448 1329,1359 550,-81 921,-721 894,-1482 4,15 6,29 8,43 128,867 -262,1643 -872,1733z"/>
  <path class="fil6" d="M3742 -5669c0,0 -8,645 153,738 160,94 344,-76 490,-101 146,-26 441,-51 647,129 207,180 385,706 385,706l45 176c0,0 121,30 133,-135 13,-166 -21,-859 0,-927 22,-68 13,-136 -63,-212 -77,-77 -174,-196 -144,-246 29,-51 157,-183 34,-297 -124,-115 -717,-187 -828,-85 -110,101 -522,-289 -852,254z"/>
  <path class="fil6" d="M3629 -5620c0,0 -579,64 -592,573 0,0 -70,114 -210,299 -140,184 26,496 64,681 38,184 117,337 112,392 -4,55 102,161 198,119 95,-42 116,-156 116,-156 0,0 9,-718 115,-845 106,-128 286,-253 390,-306 104,-53 127,-152 127,-165 0,-13 -131,-709 -131,-709l-189 117z"/>
  <path class="fil1" d="M3502 -3439c79,164 50,343 -66,399 -116,56 -274,-31 -354,-195 -80,-164 -51,-343 65,-399 116,-56 275,31 355,195z"/>
  <path class="fil1" d="M5750 -3663c-21,181 -142,316 -270,301 -128,-15 -215,-173 -194,-355 21,-181 142,-316 270,-301 128,15 215,174 194,355z"/>
  <path class="fil6" d="M4003 -3991c-79,5 -163,15 -242,32 -78,16 -157,40 -216,76l-3 2c-31,19 -72,10 -91,-21 -19,-31 -10,-71 20,-91 85,-56 173,-81 259,-103 88,-21 173,-34 263,-43 41,-4 77,26 81,67 4,40 -26,77 -67,80 0,0 -1,0 -2,0l-2 1z"/>
  <path class="fil6" d="M3936 -3676c9,63 -27,121 -80,129 -53,7 -104,-37 -113,-101 -10,-63 26,-121 79,-128 53,-8 104,37 114,100z"/>
  <path class="fil6" d="M4676 -4072c78,-13 162,-22 242,-23 80,-2 162,3 228,25l3 1c35,12 72,-7 84,-41 12,-34 -6,-71 -40,-84 -95,-35 -186,-40 -276,-42 -90,0 -176,6 -266,18 -40,6 -68,43 -63,84 6,40 43,68 83,63 1,0 2,0 2,0l3 -1z"/>
  <path class="fil6" d="M4813 -3780c5,64 53,112 106,107 54,-4 93,-59 88,-123 -5,-64 -53,-112 -107,-107 -53,4 -93,59 -87,123z"/>
  <path class="fil6" d="M4081 -2244c33,23 150,-5 188,-13 64,-14 137,-38 177,-94 46,-63 25,-159 19,-232 -1,-20 2,-78 -15,-95 0,0 168,-25 170,-25 -15,2 30,239 37,258 19,52 71,81 122,94 53,13 111,15 166,11 13,-1 145,-12 146,-26 -1,12 -10,21 -18,29 -85,88 -180,167 -275,245 0,0 -450,38 -463,25 -12,-13 -254,-177 -254,-177z"/>
  <path class="fil7" d="M4918 -2869c-59,105 -184,193 -342,223 -210,41 -405,-30 -480,-163 0,-2 2,-4 4,-6 26,-22 54,-42 83,-58l616 -73c48,10 91,28 119,77z"/>
  <path class="fil6" d="M4041 -2160c-13,-128 -50,-539 4,-661l0 -8 18 -21c34,-29 64,-50 96,-67 99,-59 224,-93 358,-97 74,-4 147,-1 217,7l17 2c20,2 40,5 59,9 49,11 112,32 152,102 43,72 61,150 78,225 5,20 9,39 14,58 30,118 39,217 29,313l-101 -10c8,-84 0,-172 -26,-278 -5,-19 -10,-39 -15,-60 -16,-71 -32,-138 -67,-197 -16,-29 -40,-44 -85,-53 -17,-4 -33,-6 -50,-8l-17 -2c-64,-7 -132,-10 -201,-7 -118,5 -226,33 -312,84 -25,14 -48,30 -71,49l-1 1c-29,45 -21,351 5,609l-101 10z"/>
  <path class="fil6" d="M4332 -3232c-5,0 -10,-2 -12,-7 -4,-7 -1,-15 5,-19l110 -58c35,-19 54,-52 49,-86l-55 -385c-1,-8 4,-15 11,-16 8,-1 15,4 16,12l56 385c6,46 -19,90 -64,114l-110 59c-2,1 -4,1 -6,1z"/>
  <path class="fil8" d="M4859 6901l0 0zm98 1317c-15,0 -27,-12 -28,-27 -11,-460 -39,-1207 -69,-1287 -101,-60 -599,-216 -853,-291 -15,-4 -23,-20 -19,-34 5,-15 20,-23 35,-19 31,9 755,224 872,301 19,11 42,26 69,686 13,320 21,639 21,643 0,15 -12,28 -27,28 0,0 -1,0 -1,0z"/>
  <path class="fil4" d="M3255 2661c-6,0 -12,-2 -16,-6 -7,-5 -11,-12 -12,-21 -4,-83 -115,-1402 -116,-1415 -2,-16 10,-29 25,-30 15,-2 29,10 30,25 4,51 98,1161 114,1383 156,-42 825,-219 1092,-272 15,-3 30,6 33,21 3,16 -7,30 -22,33 -300,59 -1113,278 -1121,281 -2,0 -5,1 -7,1z"/>
  <path class="fil4" d="M2527 4710c-88,0 -168,-9 -235,-31 -398,-130 -671,-1201 -682,-1247 -4,-15 5,-30 20,-34 15,-3 30,6 34,21 3,10 276,1086 646,1207 375,123 1279,-197 1288,-200 14,-6 30,2 35,17 6,14 -2,30 -16,35 -32,11 -655,232 -1090,232z"/>
  <path class="fil4" d="M4705 4082c-11,0 -20,-6 -25,-16 -7,-14 -2,-30 12,-37l845 -424c14,-7 31,-1 38,13 7,13 1,30 -13,37l-845 424c-4,2 -8,3 -12,3z"/>
  <path class="fil4" d="M6684 2765c-1,0 -3,0 -4,-1 -15,-2 -26,-16 -23,-31l233 -1458c3,-15 17,-26 32,-23 15,2 26,17 23,32l-233 1457c-3,14 -14,24 -28,24z"/>
  <path class="fil4" d="M7095 4563c-2,0 -3,0 -5,0l-1400 -217c-15,-3 -25,-17 -23,-32 2,-15 16,-26 32,-23l1400 217c15,2 25,17 23,32 -2,13 -14,23 -27,23z"/>
  <polygon class="fil1" points="14103,-3983 13851,-3061 14395,-2424 15173,-2814 15140,-3785 "/>
  <polygon class="fil2" points="16882,4153 16882,8725 14563,8725 14563,4269 16730,4161 "/>
  <path class="fil2" d="M15317 4366l-80 219 -78 217 -263 727 -333 923 -536 2273 -2098 0c2,7 2,10 2,10l-288 7 2 -17 116 -931 17 -136 45 -365 42 -342 32 -258 150 -1209 41 -329 98 -789 3131 0z"/>
  <path class="fil9" d="M13910 -3231c0,0 -1140,696 -1642,941 -503,244 -831,602 -947,809 -116,207 -387,395 -367,526 19,132 -445,696 -541,1167 -97,470 -271,2031 -271,2087 0,57 309,1355 309,1355 0,0 909,903 1102,1110 193,207 773,545 850,545 77,0 560,-320 541,-639 -19,-320 -154,-1242 -290,-1392 -106,-118 -235,-224 -333,-382 -27,-44 -51,-92 -73,-145 -96,-245 174,-828 174,-828 0,0 870,-2069 831,-2351 -38,-282 251,-1279 174,-1542 -77,-264 483,-1261 483,-1261z"/>
  <path class="fil9" d="M16983 -692c0,0 193,2653 174,3104 -20,452 -114,715 1,1223 115,508 59,658 0,847 -59,188 -794,169 -794,169l-3440 -201 -1294 -1868 1681 -5230 599 -583c0,0 686,583 1256,235 0,0 1585,894 1807,1063 222,170 10,1241 10,1241z"/>
  <path class="fil9" d="M16996 -1864c0,0 553,552 541,916 -13,363 141,1718 116,2106 -26,389 38,402 90,690 51,289 264,865 283,1505 19,639 300,1100 106,1420 -193,320 -338,414 -338,414 0,0 -48,-488 -135,-536 -87,-47 -501,-169 -501,-169l-459 -5067 297 -1279z"/>
  <path class="fil5" d="M13979 -3855c-56,-130 370,717 805,670 373,-41 389,-730 389,-730 0,0 -133,217 -526,218 -440,0 -668,-158 -668,-158l0 0z"/>
  <path class="fil10" d="M15945 -4952c-10,186 -134,331 -276,323 -142,-7 -249,-164 -239,-351 10,-186 133,-330 276,-323 142,8 249,165 239,351z"/>
  <path class="fil10" d="M13886 -5066c-11,186 -134,331 -276,323 -142,-7 -249,-164 -239,-350 10,-186 133,-331 275,-323 142,7 250,164 240,350z"/>
  <path class="fil1" d="M15829 -4961c-135,793 -595,1473 -1228,1439 -633,-34 -965,-624 -1065,-1562 -88,-824 594,-1474 1227,-1439 633,34 1205,745 1066,1562z"/>
  <path class="fil2" d="M14375 -6212c2,53 -6,137 -1,162 14,70 51,138 111,171 41,22 88,26 135,27 168,4 343,-68 505,-61 74,4 131,57 194,100 116,77 331,59 331,59 110,154 121,383 233,525 27,-17 51,-39 76,-60 151,-127 160,-150 111,-349 -39,-160 68,-228 123,-355 74,-176 204,-338 72,-475 -172,-177 -297,-320 -406,-552 -61,-130 -143,-271 -276,-296 -216,-40 -380,197 -597,52 -79,-52 -155,-120 -248,-132 -96,-13 -190,39 -268,100 -98,78 -187,168 -300,217 -188,82 -404,115 -559,267 -103,102 -160,241 -212,377 -44,116 -122,248 -133,373 -13,140 68,439 179,528 53,42 93,145 93,145 0,0 170,-314 199,-385 28,-72 168,-257 265,-324 97,-68 129,-93 205,-129 50,-23 165,-79 168,15z"/>
  <path class="fil11" d="M14165 -5118c-3,55 -50,97 -105,94 -55,-3 -97,-50 -94,-105 3,-55 50,-97 105,-94 55,3 97,50 94,105z"/>
  <path class="fil11" d="M15355 -5054c-2,55 -50,97 -105,94 -55,-3 -97,-50 -94,-105 3,-55 50,-97 105,-94 55,3 97,50 94,105z"/>
  <path class="fil2" d="M13826 -5405c-26,-1 -51,-16 -61,-41 -15,-34 2,-74 36,-88 322,-134 565,-6 575,0 32,17 44,58 27,90 -18,33 -58,45 -90,28 -10,-5 -201,-103 -461,6 -9,3 -17,5 -26,5z"/>
  <path class="fil2" d="M15037 -5363c-26,-2 -50,-19 -59,-45 -12,-35 7,-73 42,-85 329,-113 564,30 574,36 31,20 41,61 21,92 -20,32 -60,41 -92,22 -9,-6 -194,-115 -460,-23 -9,3 -18,4 -26,3z"/>
  <path class="fil11" d="M15701 -5106c0,57 -10,181 -47,268 -29,68 -69,113 -129,141 -22,10 -47,18 -75,24 -103,22 -235,14 -329,-20 -101,-36 -172,-119 -200,-233 -31,-127 -32,-251 -17,-297 2,-1 3,-3 4,-5 30,-48 101,-87 279,-106 165,-18 327,12 414,54 6,3 12,7 18,10 59,34 77,121 82,163l0 1zm-1239 155c-40,110 -119,185 -224,210 -97,24 -230,18 -330,-15 -49,-17 -87,-39 -117,-68 -31,-30 -52,-69 -67,-118 -28,-91 -24,-215 -18,-272l0 -1c8,-36 30,-104 77,-140 7,-5 14,-9 22,-13 85,-38 262,-55 437,-17 174,38 240,84 266,136 0,2 1,3 2,5 11,47 -4,170 -48,293zm1405 -300c0,0 0,0 0,0 -2,-14 -9,-27 -19,-38 -3,-2 -5,-4 -8,-6 0,-1 0,-1 0,-1 -5,-4 -11,-7 -17,-9 -24,-9 -57,-19 -100,-29 -25,-5 -65,-13 -115,-21 -48,-8 -105,-16 -166,-23l0 0c-87,-9 -182,-16 -270,-16l0 0c-49,0 -95,2 -138,7 -14,2 -27,4 -39,6 -159,24 -167,63 -165,85 0,4 -4,6 -7,4 -33,-21 -72,-29 -111,-32 -39,-2 -79,3 -114,20 -3,1 -7,-1 -6,-5 4,-23 0,-67 -194,-112 -4,-1 -8,-2 -12,-3 -49,-10 -104,-18 -162,-23l0 0c-68,-6 -138,-9 -206,-9l0 0c-99,-1 -190,3 -254,8 -25,2 -45,3 -60,5 -46,5 -82,13 -107,19 -13,3 -25,11 -33,20l0 1c-10,11 -17,25 -17,41 0,1 -1,2 -1,4 0,26 15,51 40,62 10,4 21,11 30,23 24,33 31,61 60,75 2,1 3,2 3,4 -5,65 -4,175 21,259 16,53 40,95 74,128 33,32 74,55 126,72 51,17 110,27 169,30 61,4 123,-1 175,-13 112,-27 198,-107 241,-226 38,-107 54,-213 51,-275 9,3 17,1 25,-5l2 -1c1,-1 3,-2 5,-4 13,-13 56,-44 141,-40 85,5 124,41 136,55 2,2 0,3 2,5l-3 0c6,6 15,9 23,9 2,0 5,2 4,5 -8,61 -1,166 25,274 30,122 107,211 216,250 50,18 111,29 173,32 58,3 118,0 171,-12 32,-7 61,-16 87,-29 61,-31 103,-79 133,-149 34,-80 47,-190 49,-255 0,-1 1,-3 3,-3 30,-11 37,-38 65,-68 10,-10 20,-16 29,-20 11,-4 20,-10 28,-19 6,-7 11,-15 14,-24 2,-6 3,-12 4,-18 0,-2 0,-3 0,-4 0,-4 -1,-7 -1,-11z"/>
  <path class="fil12" d="M14610 -4073c-124,0 -209,-58 -211,-58 -4,-4 -6,-10 -2,-15 3,-5 9,-6 14,-3 9,6 210,140 447,-30 4,-4 11,-2 14,2 3,5 2,11 -2,15 -94,68 -184,89 -260,89z"/>
  <path class="fil12" d="M14635 -4457c-2,0 -4,-1 -5,-2 -2,-1 -51,-32 -55,-71 -3,-34 11,-209 12,-216 0,-6 6,-10 11,-10 6,1 10,6 10,12 -5,62 -15,186 -12,212 3,24 33,48 45,56 5,3 6,9 3,14 -2,3 -5,5 -9,5z"/>
  <path class="fil13" d="M12140 729c-4,0 -8,-1 -12,-3 -14,-7 -20,-23 -13,-37 30,-64 283,-822 287,-880 2,-15 15,-27 30,-26 15,1 27,15 26,30 -5,69 -266,843 -293,900 -5,10 -15,16 -25,16z"/>
  <path class="fil13" d="M14787 -2849c-108,0 -238,-20 -392,-77 -20,-7 -303,-151 -359,-180 -14,-7 -20,-24 -13,-37 7,-14 24,-19 38,-12 128,65 336,171 353,177 494,180 731,-35 733,-38 11,-10 29,-10 39,1 11,11 11,29 -1,40 -7,7 -135,126 -398,126z"/>
  <path class="fil13" d="M14563 6480c-3,0 -6,0 -10,-1 -14,-6 -21,-21 -16,-36l333 -923c6,-15 21,-22 36,-17 14,5 22,21 17,35l-334 924c-4,11 -15,18 -26,18z"/>
  <polygon class="fil1" points="24276,-2205 22614,-2175 22732,-3534 24129,-3534 "/>
  <path class="fil6" d="M24613 -4545c0,888 -534,1607 -1193,1607 -659,0 -1194,-719 -1194,-1607 0,-369 -88,-933 67,-1204 218,-382 741,-403 1127,-403 383,0 837,-90 1056,289 157,272 137,947 137,1318z"/>
  <path class="fil6" d="M24795 -5221c0,0 128,-1246 -68,-1452 -196,-206 -87,-264 -298,-323 -211,-59 -215,-167 -563,-167 -60,0 -89,-39 -422,-39 -108,0 -284,-89 -534,49 -249,137 -409,-54 -589,178 -179,231 -248,106 -405,469 -156,363 49,540 88,932 40,392 245,706 245,706l2490 -80 56 -273z"/>
  <path class="fil1" d="M24613 -4806c0,888 -534,1607 -1193,1607 -659,0 -1194,-719 -1194,-1607 0,-368 -88,-933 67,-1204 218,-382 741,-403 1127,-403 383,0 837,-89 1056,289 157,272 137,947 137,1318z"/>
  <path class="fil1" d="M22469 -4716c16,189 -70,350 -191,360 -122,10 -233,-135 -248,-323 -16,-189 70,-350 192,-360 121,-10 232,135 247,323z"/>
  <path class="fil1" d="M24350 -4729c-27,187 48,353 168,371 121,17 241,-120 268,-307 27,-188 -48,-354 -168,-371 -121,-18 -241,119 -268,307z"/>
  <path class="fil6" d="M23065 -5611c-29,0 -54,0 -81,1 -26,1 -52,3 -78,6 -53,5 -105,12 -157,22 -53,11 -105,24 -156,42 -51,18 -102,41 -149,71 -22,14 -34,42 -26,69 9,33 44,52 77,43l3 -1c44,-13 89,-23 135,-31 47,-8 94,-15 142,-20 47,-4 95,-8 144,-10 24,-1 48,-2 72,-3 24,-1 49,-1 71,-1l2 0c50,-1 91,-41 92,-91 2,-52 -39,-95 -91,-97z"/>
  <path class="fil6" d="M24312 -5469c-47,-30 -98,-53 -149,-71 -51,-18 -103,-31 -155,-42 -53,-10 -105,-17 -157,-22 -27,-3 -53,-5 -79,-6 -27,-1 -52,-1 -81,-1 -50,2 -90,42 -91,93 -1,52 40,94 92,95l2 0c22,0 47,0 71,1 24,1 48,2 72,3 49,2 97,6 144,10 48,5 95,12 142,20 46,8 91,18 135,31l4 1c25,7 53,-3 69,-26 18,-29 10,-68 -19,-86z"/>
  <path class="fil6" d="M22905 -4976c0,60 -39,108 -87,108 -48,0 -86,-48 -86,-108 0,-59 38,-108 86,-108 48,0 87,49 87,108z"/>
  <path class="fil6" d="M24040 -4976c0,60 -39,108 -87,108 -48,0 -87,-48 -87,-108 0,-59 39,-108 87,-108 48,0 87,49 87,108z"/>
  <path class="fil14" d="M23422 -4319c0,0 0,0 0,0 -13,0 -126,-6 -151,-42 -6,-8 -7,-17 -4,-26 15,-50 73,-384 73,-388 1,-3 4,-6 8,-5 4,0 7,4 6,8 -2,14 -58,338 -74,389 -1,5 -1,9 2,14 18,25 107,35 140,36 4,0 7,4 7,8 0,3 -3,6 -7,6z"/>
  <path class="fil6" d="M22080 -6276c0,0 267,385 516,317 249,-67 391,-352 509,-223 118,129 323,108 482,7 160,-100 108,29 317,62 210,33 312,-32 466,162 153,195 311,102 258,-162 -52,-264 -409,-832 -724,-669 -314,162 -1824,506 -1824,506z"/>
  <path class="fil6" d="M24455 -4946c0,2 -1,5 -1,7 -17,77 -48,193 -108,242 -4,4 -9,7 -14,10 -81,49 -242,75 -377,58 -135,-17 -224,-69 -278,-169 -14,-26 -29,-67 -43,-114 -30,-102 -50,-231 -21,-287 43,-81 269,-109 374,-115 139,-9 349,-5 432,53 75,52 58,200 42,289 -2,9 -4,18 -6,26zm-1317 148c-53,100 -143,152 -278,169 -134,17 -295,-9 -377,-58 -4,-3 -9,-6 -13,-9 -45,-36 -73,-109 -92,-176 -7,-27 -13,-52 -18,-74 -2,-12 -5,-26 -8,-42l0 0c-15,-89 -27,-224 44,-273 84,-58 293,-62 432,-53 105,6 332,34 374,115 31,59 7,198 -25,301 -13,41 -26,77 -39,100zm1472 -560c-5,-1 -10,-3 -15,-4 -80,-18 -168,-30 -258,-35 -91,-6 -183,-6 -272,-1 0,0 0,0 0,0 -172,9 -328,34 -420,64 -75,25 -162,60 -237,60 -75,0 -163,-35 -238,-60 -100,-33 -275,-60 -465,-66l0 0c-1,0 -1,0 -1,0 -93,-3 -190,-2 -283,7 -76,7 -150,19 -217,35 0,0 -1,0 -1,1 -21,5 -41,11 -61,17l10 178c0,0 27,-6 50,10 4,3 8,6 11,11 7,7 12,17 16,30 4,15 10,40 18,72 11,48 25,109 43,170 22,74 50,147 85,191 24,31 56,55 92,73 111,57 264,58 376,54 199,-9 329,-97 384,-247 14,-36 25,-70 36,-102 35,-104 60,-186 87,-217 19,-22 41,-24 58,-24 17,0 38,2 57,24 27,30 51,108 84,208 12,34 25,72 39,111 56,150 186,238 385,247 111,4 263,3 374,-53 36,-18 68,-43 94,-74 46,-58 80,-168 104,-263 9,-34 17,-66 23,-94 8,-34 14,-61 18,-76 5,-17 13,-29 22,-37 2,-2 4,-3 6,-4 23,-16 50,-10 50,-10l9 -178c-20,-7 -41,-13 -63,-18z"/>
  <path class="fil0" d="M25990 -2176c0,0 984,408 1185,646 201,237 885,2267 885,3332 0,1065 160,2700 0,3008 -161,308 -885,1834 -1367,2186 -482,352 -680,326 -680,326l-118 -1585 517 -2508 -262 -3779 -160 -1626z"/>
  <path class="fil15" d="M23386 6468c-49,231 -112,1136 -169,2132 -3,41 -5,83 -8,125l-2495 0c-28,-1515 23,-2970 23,-2970 0,0 24,2 66,4 22,2 49,3 80,5 3,1 6,1 9,1 0,0 1,0 1,0 227,16 669,52 1120,118 235,35 472,78 682,131 295,75 535,169 639,287 8,8 14,16 20,24l0 1c4,5 8,11 11,17 23,39 31,80 21,125z"/>
  <polygon class="fil15" points="26013,6014 26013,8725 23251,8725 23227,8618 23217,8600 22673,7602 22051,6473 21948,6286 21936,6265 21798,6014 "/>
  <path class="fil16" d="M22614 -2867l1662 0 216 389 1498 298c0,0 999,479 1028,557 30,78 382,4093 235,5078 -147,984 -59,2073 -205,2565 -147,492 -6082,207 -6082,207 0,0 -1204,-7306 -822,-7643 382,-337 2301,-859 2365,-971 63,-113 105,-480 105,-480z"/>
  <path class="fil0" d="M27253 3496c-147,991 -59,2086 -205,2582 -53,178 -830,420 -1836,445 -762,20 -1654,-205 -2411,-223 -58,-1 -114,-2 -170,-4 -939,-19 -1665,-10 -1665,-10 0,0 -1204,-7353 -822,-7692 335,-298 1853,-739 2264,-919l1191 2103 1040 -2224 1351 270c0,0 999,483 1028,561 30,78 382,4120 235,5111z"/>
  <path class="fil17" d="M25984 2264c-15,0 -27,-12 -28,-27l-17 -1259c-2,-158 -71,-635 -71,-640 -2,-15 8,-29 23,-31 15,-2 30,8 32,24 3,19 69,485 71,646l18 1259c0,15 -12,28 -27,28 -1,0 -1,0 -1,0z"/>
  <path class="fil18" d="M23010 -3914c27,136 213,232 427,217 186,-13 334,-107 368,-221l-795 4z"/>
  <path class="fil17" d="M23616 -192c-10,0 -20,-6 -25,-15l-566 -1000c-8,-13 -3,-30 10,-38 14,-7 31,-3 38,11l540 953 671 -1433c6,-14 23,-20 37,-14 14,7 20,24 13,37l-693 1483c-5,9 -14,15 -24,16 -1,0 -1,0 -1,0z"/>
  <path class="fil4" d="M25059 6552c-327,0 -720,-25 -1136,-107 -1037,-203 -1741,-140 -1748,-139 -16,1 -29,-10 -31,-25 -1,-15 10,-29 25,-30 8,-1 720,-65 1764,140 1063,208 1983,43 1991,41 15,-3 30,6 34,21 3,15 -6,30 -21,34 -5,1 -357,65 -878,65z"/>
  <path class="fil4" d="M23604 8122c-15,0 -28,-13 -28,-28l0 -750c0,-2 1,-4 1,-6l88 -415c3,-15 18,-25 33,-22 15,4 25,18 21,33l-87 413 0 747c0,15 -13,28 -28,28z"/>
  <path class="fil19" d="M9916 -3483c0,0 344,-127 655,32 331,169 499,339 575,1761 76,1421 68,2132 76,2242 9,110 -2708,76 -2708,76l0 -3537 1402 -574z"/>
  <path class="fil7" d="M8544 566c0,0 -1383,151 -1357,2534 26,2383 -482,2217 -67,3915 0,0 940,190 1478,-194l-54 -4688 0 -1567z"/>
  <path class="fil16" d="M11915 8742l2 -17 -4436 0c44,-265 146,-657 270,-1089 12,-40 23,-81 35,-121l1 -3c44,-150 90,-303 138,-457l2 -7c215,-700 450,-1404 579,-1782 0,-1 0,-1 0,-1 31,-89 55,-160 72,-209l0 -1c17,-48 26,-75 26,-75l2887 0c8,24 23,86 43,178l0 0c4,23 10,48 15,74 57,275 145,734 238,1231 0,0 0,0 0,0 7,39 14,78 22,116 41,223 83,451 124,672 5,26 9,51 14,77 10,55 20,110 30,164 1,4 2,9 3,14 9,50 18,100 27,149 9,48 17,94 26,139 89,492 157,868 168,931 2,7 2,10 2,10l-288 7z"/>
  <path class="fil7" d="M8607 621c0,0 -627,183 -543,1501 85,1319 -627,2953 398,3144l2822 -36c266,-3 481,-220 481,-486l0 -4152 -592 -103 -2566 132z"/>
  <polygon class="fil1" points="10334,146 9312,177 9347,-700 10283,-700 "/>
  <path class="fil7" d="M9224 17l1304 0c84,0 156,62 174,149l74 377 -1794 70 67 -438c13,-92 88,-158 175,-158z"/>
  <path class="fil5" d="M10302 -383c-58,123 -164,245 -316,262 -260,29 -514,-259 -639,-419 -25,-32 -37,-58 -51,-77 22,13 55,35 115,58 101,37 254,76 458,76 148,0 261,-35 343,-76l79 -2 11 178z"/>
  <path class="fil1" d="M10741 -1730c22,705 -398,1290 -939,1307 -540,17 -996,-541 -1018,-1246 -22,-705 398,-1290 938,-1307 540,-17 996,541 1019,1246z"/>
  <path class="fil1" d="M10963 -1653c0,146 -126,287 -231,287 -104,0 -189,-119 -189,-265 0,-146 139,-264 244,-264 104,0 176,96 176,242z"/>
  <path class="fil12" d="M10380 -2109c-8,0 -16,-2 -23,-4 -210,-69 -349,-6 -355,-4 -37,18 -83,2 -101,-36 -18,-38 -2,-83 35,-101 8,-4 196,-93 468,-4 40,13 62,56 49,96 -11,32 -41,53 -73,53z"/>
  <path class="fil12" d="M8921 -1989c-25,0 -49,-11 -63,-33 -24,-35 -15,-81 19,-105 7,-5 180,-122 462,-75 41,7 69,46 62,87 -7,42 -46,70 -87,63 -218,-36 -345,47 -351,50 -13,9 -28,13 -42,13z"/>
  <path class="fil12" d="M9758 -1388l-76 0c-7,0 -13,-6 -13,-13l0 -285c0,-7 6,-13 13,-13 7,0 13,6 13,13l0 273 63 0c7,0 13,5 13,12 0,7 -6,13 -13,13z"/>
  <path class="fil12" d="M9276 -1748c0,59 -38,106 -85,106 -47,0 -85,-47 -85,-106 0,-59 38,-106 85,-106 47,0 85,47 85,106z"/>
  <path class="fil12" d="M10260 -1854c0,58 -38,106 -85,106 -47,0 -85,-48 -85,-106 0,-59 38,-107 85,-107 47,0 85,48 85,107z"/>
  <path class="fil7" d="M9454 -1035c29,131 182,216 352,192 148,-22 261,-119 282,-231l-634 39z"/>
  <path class="fil19" d="M9889 -3510c266,532 -375,724 -618,1012 -265,315 -449,937 -434,1351 39,1130 421,2036 -324,3071 154,-628 -81,-1108 -277,-1678 -215,-628 -211,-1270 -137,-1921 56,-491 74,-1285 443,-1656 212,-212 1178,-519 1347,-179z"/>
  <path class="fil19" d="M9828 -2972c0,0 119,209 385,337 377,182 457,781 457,781l153 -84 -296 -1113 -699 79z"/>
  <path class="fil1" d="M12009 7502l-188 -61c0,0 -23,-33 3,-76 26,-42 87,-41 117,-38 30,3 92,26 92,26 0,0 74,-84 149,-122 0,0 -20,-103 15,-170 0,0 -77,-79 -68,-195 0,0 -8,-14 -20,-35 -10,4 -29,13 -41,20 -17,10 -19,66 -12,99 7,34 14,140 4,201 -11,61 -57,102 -127,100 -69,-3 -71,-70 -85,-131 -13,-60 -7,-117 -3,-225 5,-109 -23,-163 -44,-265 -20,-103 -13,-185 -13,-185 9,-86 43,-189 52,-216 -10,-61 -9,-120 11,-163 35,-78 -79,-644 -79,-644l579 65 -54 641c0,0 181,380 241,551 60,170 104,260 96,345 0,0 -88,341 -179,416 -93,78 -299,213 -359,218 -65,5 -237,-18 -237,-18 0,0 -39,-2 -67,-18 0,0 -28,1 -7,-57 22,-58 81,-44 224,-63z"/>
  <path class="fil7" d="M11445 532c0,0 811,-58 1097,1079 285,1137 255,1564 240,2288 -15,724 830,2154 63,3075 0,0 -649,-323 -1250,-446 0,0 -105,-114 -45,-1309 60,-1195 -105,-4687 -105,-4687l0 0z"/>
  <path class="fil5" d="M7927 7048c0,0 -241,14 -288,14 0,0 4,336 144,450l3 3 141 -467z"/>
  <path class="fil20" d="M8322 4641c-14,0 -26,-10 -28,-25 -1,-11 -28,-278 33,-557 31,-143 10,-225 -22,-350 -29,-111 -65,-249 -79,-482 -31,-503 155,-787 163,-799 9,-12 26,-16 39,-7 13,9 16,26 7,38 -2,5 -184,283 -154,764 15,229 49,364 77,472 33,128 57,220 23,376 -58,270 -32,537 -31,540 1,15 -10,28 -25,30 -1,0 -2,0 -3,0z"/>
  <path class="fil20" d="M11468 5069c-1,0 -2,0 -3,0 -15,-2 -26,-15 -25,-31 23,-219 40,-416 20,-611 -10,-102 -23,-205 -35,-304 -27,-220 -56,-448 -61,-679 -1,-16 11,-28 27,-29 15,-1 28,12 28,27 6,229 33,445 61,674 12,100 25,202 35,305 21,200 4,401 -19,623 -2,14 -14,25 -28,25z"/>
  <path class="fil21" d="M10137 5293l-1675 0c-16,0 -28,-12 -28,-27 0,-16 12,-28 28,-28l1675 0c16,0 28,12 28,28 0,15 -12,27 -28,27z"/>
  <polygon class="fil1" points="33026,-3636 33026,-2393 31648,-2393 31648,-3636 "/>
  <path class="fil5" d="M33026 -3534l0 386c-101,102 -239,183 -412,199 -373,33 -737,-244 -966,-458l0 -128c1,0 2,1 3,1 168,50 425,102 767,102 248,0 437,-47 574,-102l34 0z"/>
  <path class="fil10" d="M31397 -4696c17,207 -64,384 -182,393 -117,10 -226,-151 -243,-358 -17,-208 64,-384 181,-394 118,-9 226,151 244,359z"/>
  <path class="fil10" d="M33663 -4653c-25,206 -139,363 -256,349 -117,-14 -192,-193 -167,-400 24,-207 139,-363 256,-349 117,14 192,193 167,400z"/>
  <path class="fil1" d="M33448 -4694c0,824 -501,1491 -1119,1491 -617,0 -1118,-667 -1118,-1491 0,-824 501,-1491 1118,-1491 618,0 1119,667 1119,1491z"/>
  <path class="fil0" d="M32054 -6884c-33,0 -333,-220 -719,146 -386,366 -297,295 -404,393 -106,98 -80,201 -222,291 -142,91 -168,135 -106,242 62,106 105,213 -32,284 -137,71 -190,88 -119,150 71,63 11,145 171,171 160,27 246,44 273,112 26,68 86,68 166,95 80,26 93,40 120,80 27,40 55,26 55,26 0,0 162,-394 170,-563 8,-169 61,4 188,-169 126,-173 152,-159 259,-295 108,-136 44,-50 132,-147 88,-97 68,-816 68,-816z"/>
  <path class="fil22" d="M32338 -4248c-13,0 -22,0 -25,0 -8,-1 -13,-7 -13,-14 0,-8 7,-14 14,-13 53,2 144,-3 165,-29 21,-24 11,-164 -2,-255 -2,-8 4,-14 11,-16 7,-1 14,4 15,12 6,39 32,234 -3,276 -28,35 -117,39 -162,39z"/>
  <path class="fil18" d="M31968 -3949l739 0c0,0 -236,388 -599,137 -12,-9 -140,-137 -140,-137z"/>
  <path class="fil22" d="M32065 -5183c-44,5 -89,8 -133,12 -44,4 -88,7 -132,12 -43,4 -87,10 -129,16 -43,7 -84,15 -125,23l-3 1c-29,6 -58,-13 -64,-42 -5,-24 7,-47 27,-58 45,-24 92,-40 139,-52 48,-11 95,-18 143,-22 48,-3 95,-4 142,-2 48,3 94,8 142,19 26,6 42,31 36,56 -5,21 -21,35 -41,37l-2 0z"/>
  <path class="fil22" d="M32594 -5276c48,-11 94,-16 142,-19 47,-2 95,-1 142,2 48,4 96,11 143,22 48,12 95,28 139,52 26,14 36,46 22,73 -12,21 -36,32 -59,27l-2 -1c-42,-8 -83,-16 -125,-23 -43,-6 -86,-12 -130,-16 -43,-5 -87,-8 -132,-12 -44,-4 -89,-7 -132,-12l-3 0c-26,-3 -44,-26 -42,-52 3,-21 18,-37 37,-41z"/>
  <path class="fil22" d="M31859 -4815c0,67 -41,121 -92,121 -51,0 -92,-54 -92,-121 0,-67 41,-121 92,-121 51,0 92,54 92,121z"/>
  <path class="fil22" d="M32961 -4815c0,67 -41,121 -92,121 -51,0 -92,-54 -92,-121 0,-67 41,-121 92,-121 51,0 92,54 92,121z"/>
  <path class="fil0" d="M31865 -6371c0,0 26,522 519,651 0,0 140,-14 246,187 107,200 -6,179 120,243 127,65 113,-7 313,79 200,86 133,145 280,230 146,85 432,21 472,-51 40,-72 107,-93 127,-165 20,-71 0,-387 0,-387 0,0 -240,-171 -320,-372 -80,-201 27,-287 -146,-415 -173,-129 -440,-244 -493,-301 -53,-58 -120,-344 -346,-330 -226,15 -506,-8 -606,0 -100,7 -153,93 -166,187 -14,93 0,444 0,444z"/>
  <path class="fil16" d="M35228 8725l-2554 0c-51,-668 -97,-1351 -103,-1758 -2,-82 0,-206 0,-206l-121 1964 -2901 0c3,-552 32,-1225 111,-2022 3,-28 5,-55 8,-83 27,-264 60,-543 99,-835 13,-104 28,-210 44,-318 16,-115 34,-232 52,-350 14,-88 28,-177 43,-266 7,-43 14,-85 21,-128l0 0c12,-75 25,-150 39,-227 26,-148 53,-299 82,-453l4724 0c0,0 20,82 52,229 12,51 24,109 37,175 1,0 1,1 1,1 2,11 5,23 7,35 29,140 61,309 96,501 26,150 54,314 80,490 45,289 87,610 122,951 6,56 11,112 17,169 62,673 92,1413 44,2131z"/>
  <path class="fil15" d="M34297 -2338c0,0 1034,323 1245,512 211,189 928,1801 928,2647 0,846 169,2145 0,2389 -169,244 -928,1457 -1435,1736 -506,280 -714,259 -714,259l-124 -1259 543 -1992 -276 -3001 -167 -1291z"/>
  <path class="fil15" d="M31066 -2585c113,-42 417,-128 630,-49 212,79 724,158 968,49 244,-108 559,-123 780,-76 220,47 842,175 1204,472 363,297 583,5900 248,6375 -116,166 -699,732 -1621,562 -736,-135 -1572,457 -2358,54 -614,-315 -1103,-319 -1103,-319 0,0 -740,-4949 -331,-6078 0,0 47,-415 1583,-990z"/>
  <path class="fil4" d="M32571 6788c0,0 -1,0 -1,0 -15,0 -27,-13 -27,-28 5,-143 82,-245 200,-400 86,-114 194,-255 312,-464 7,-14 24,-18 38,-11 13,8 18,25 10,38 -120,212 -229,356 -316,471 -115,151 -184,242 -188,368 -1,15 -13,26 -28,26z"/>
  <path class="fil15" d="M31085 -2508c0,0 -843,516 -1207,730 -365,215 -602,528 -686,709 -84,182 -280,346 -266,462 14,115 -322,610 -392,1022 -70,412 -196,1780 -196,1829 0,50 224,1187 224,1187 0,0 658,791 798,972 140,182 559,479 616,479 56,0 405,-281 392,-561 -15,-280 -113,-1088 -210,-1220 -77,-103 -171,-196 -242,-334 -19,-38 -37,-80 -53,-127 -70,-214 126,-725 126,-725 0,0 630,-1813 602,-2061 -28,-247 182,-1121 126,-1351 -56,-231 368,-1011 368,-1011z"/>
  <path class="fil4" d="M31388 4960c-492,0 -715,-267 -724,-279 -10,-12 -8,-29 4,-39 12,-10 29,-8 39,4 3,4 232,275 727,258 430,-15 646,-67 820,-109 36,-9 70,-17 104,-24 314,-69 749,-151 904,-65 13,8 18,25 11,38 -8,13 -25,18 -38,11 -154,-86 -689,31 -865,70 -34,7 -67,16 -103,24 -176,42 -396,95 -831,110 -16,1 -32,1 -48,1z"/>
  <path class="fil4" d="M29989 2503c-12,0 -24,-9 -27,-22 -63,-299 -31,-568 96,-800 117,-213 192,-428 272,-656 47,-134 95,-272 152,-408 6,-15 22,-21 37,-15 14,5 20,22 14,36 -56,135 -104,272 -150,405 -77,220 -157,448 -276,665 -120,219 -151,476 -90,761 3,15 -7,30 -22,33 -2,1 -4,1 -6,1z"/>
  <path class="fil4" d="M32226 -2499c-211,0 -570,-118 -587,-123 -14,-5 -22,-21 -17,-35 4,-15 20,-23 35,-18 4,1 420,138 608,119 107,-11 178,-8 226,-7 30,1 56,2 64,-2 13,-9 30,-5 38,8 8,13 5,30 -8,38 -22,15 -50,14 -97,12 -45,-2 -114,-4 -217,6 -14,2 -29,2 -45,2z"/>
  <path class="fil23" d="M39396 -58c-237,306 -611,554 -1007,566 -37,1 -102,5 -188,12 -630,50 -2410,237 -3197,320 -235,25 -381,41 -382,41 -94,10 -165,-333 -169,-384 -11,-175 51,-345 136,-495 86,-153 275,-331 205,-524 -61,-170 -297,-206 -400,-356 -73,-108 -61,-256 -3,-373 85,-173 245,-318 418,-397 149,-69 277,-149 344,-288 15,-31 27,-64 35,-102 47,-209 5,-472 147,-656 119,-152 407,-314 679,-619 43,-48 86,-93 131,-136 10,-9 20,-19 30,-28 229,-210 473,-340 679,-353 254,-17 678,42 772,288 93,246 212,212 365,305 152,94 500,170 579,702 45,300 0,441 -2,542 0,58 13,102 67,156 18,19 42,38 71,60 260,192 532,350 690,599 158,249 238,815 0,1120z"/>
  <path class="fil2" d="M39396 -58c-237,306 -611,554 -1007,566 -37,1 -102,5 -188,12 22,-126 41,-274 30,-374 -21,-204 -34,-113 -79,-249 -45,-136 90,-351 79,-509 -11,-158 -192,-260 -272,-543 -79,-283 93,-460 93,-460l517 -378c-1,58 12,102 66,156 18,19 42,38 71,60 260,192 532,350 690,599 158,249 238,815 0,1120z"/>
  <path class="fil1" d="M37480 353c-97,43 -210,82 -337,108l-596 0c-88,-18 -178,-45 -271,-83l8 -322 48 -763 4 -60 9 -138 996 27 17 130 32 254 71 555 19 292z"/>
  <path class="fil1" d="M38071 -1667c-33,129 -150,210 -261,181 -110,-29 -172,-157 -138,-286 34,-128 151,-209 261,-180 110,29 172,157 138,285z"/>
  <path class="fil18" d="M39315 664l-200 4681 -1478 47 -2840 90 -227 -4895 1714 -531c0,0 407,306 1177,5 18,-7 99,8 218,38 186,46 463,126 736,208 125,91 250,180 498,207 122,13 265,70 402,150z"/>
  <path class="fil2" d="M35957 -1349c0,0 91,461 -74,755 -163,294 -231,311 -163,579 67,269 82,208 67,365 -7,84 -406,312 -783,490 -235,25 -381,41 -382,41 -94,10 -165,-333 -169,-384 -11,-175 51,-345 136,-495 86,-153 275,-331 205,-524 -61,-170 -297,-206 -400,-356 -73,-108 -61,-256 -3,-373 85,-173 245,-318 418,-397 149,-69 277,-149 344,-288 15,-31 27,-64 35,-102 47,-209 5,-472 147,-656 119,-152 407,-314 679,-619 43,-48 86,-93 131,-136 10,-9 20,-19 30,-28l97 1080 -315 1048z"/>
  <path class="fil1" d="M37801 -1868c0,731 -418,1324 -933,1324 -516,0 -984,-559 -984,-1290 0,-731 468,-1357 984,-1357 515,0 933,592 933,1323z"/>
  <path class="fil12" d="M36488 -2221c-25,-8 -58,-15 -88,-20 -30,-5 -61,-9 -93,-11 -62,-5 -125,-3 -186,5l-1 0c-36,5 -68,-20 -72,-55 -5,-35 19,-66 53,-72 70,-12 142,-17 213,-14 36,1 72,4 107,9 37,5 70,10 109,21 39,10 61,50 51,88 -11,38 -50,61 -88,50 -1,0 -2,0 -3,0l-2 -1z"/>
  <path class="fil12" d="M37071 -2351c40,-10 73,-14 110,-19 35,-3 71,-6 107,-6 71,-1 143,6 213,20 35,6 58,40 51,75 -7,34 -39,57 -73,52l-1 -1c-62,-9 -124,-13 -187,-10 -31,2 -62,5 -93,9 -30,4 -63,11 -88,18l-2 1c-38,11 -78,-11 -89,-50 -11,-38 11,-77 49,-88 1,-1 2,-1 3,-1z"/>
  <path class="fil12" d="M36432 -2010c0,55 -39,100 -88,100 -48,0 -87,-45 -87,-100 0,-56 39,-100 87,-100 49,0 88,44 88,100z"/>
  <path class="fil12" d="M37341 -1993c0,55 -39,100 -87,100 -49,0 -88,-45 -88,-100 0,-56 39,-100 88,-100 48,0 87,44 87,100z"/>
  <path class="fil1" d="M36111 -1834c71,112 46,256 -57,321 -102,64 -242,25 -313,-87 -71,-113 -46,-256 56,-321 102,-64 242,-26 314,87z"/>
  <path class="fil2" d="M38635 -1837c-149,130 -328,285 -348,314 -33,51 -334,57 -285,-21 16,-26 82,-412 -147,-378 -229,34 -246,-101 -305,-195 -59,-93 -9,-339 -1,-427 9,-88 -118,-218 -280,-158 -161,59 -492,204 -585,144 -93,-59 -17,-246 -289,-204 -271,43 -280,-313 -280,-313l30 -374c238,-226 494,-367 709,-382 254,-16 678,43 772,289 93,246 212,212 364,305 153,94 501,170 580,702 71,472 -82,551 65,698z"/>
  <path class="fil0" d="M39306 8725l-4461 0c18,-685 177,-1483 339,-2131 16,-65 32,-128 48,-190 113,-431 220,-776 274,-945 24,-73 37,-113 37,-113l602 -33 172 -9 1343 -72 853 -46c0,0 3,66 16,178 25,233 90,664 244,1107 54,157 119,316 198,467 221,427 305,1184 335,1787z"/>
  <path class="fil9" d="M36099 47c15,-2 28,10 27,25 -22,221 -158,1610 -189,1672 -34,68 -68,351 -79,577 -11,226 -11,305 0,622 11,317 45,656 79,871 34,215 175,976 184,1188 8,212 17,307 59,493 43,186 111,364 94,491 -17,127 -1774,645 -1774,645 0,0 -178,-119 -203,-306 -26,-186 -144,-280 -170,-475 -25,-195 -90,-1340 45,-1892 136,-551 -373,-958 -350,-1049 22,-90 17,-1682 178,-1835 161,-153 566,-526 882,-560 317,-34 433,-170 603,-280 144,-94 508,-167 614,-187z"/>
  <path class="fil13" d="M35620 2974c-8,0 -17,-4 -22,-12 -49,-70 -29,-125 -9,-183 23,-65 49,-138 5,-271 -40,-119 -101,-213 -161,-303 -69,-105 -135,-203 -151,-324 -14,-104 25,-250 63,-391 41,-152 83,-308 47,-377 -37,-69 -123,-136 -205,-201 -82,-65 -160,-126 -188,-189 -17,-40 -14,-114 209,-309 116,-101 240,-189 241,-190 13,-9 30,-6 39,7 9,12 6,29 -7,38 -228,162 -456,374 -431,431 23,51 95,108 171,168 87,68 177,139 220,219 47,88 4,248 -42,417 -37,136 -75,276 -62,370 15,108 74,197 142,300 59,89 126,191 168,317 50,150 18,241 -5,307 -19,53 -31,86 1,133 9,12 6,30 -7,38 -5,3 -10,5 -16,5z"/>
  <path class="fil9" d="M34000 1091c-45,96 -614,680 -672,1105 -58,425 -262,584 -245,1116 17,531 -51,708 187,974 237,266 237,496 407,833 169,336 -16,496 323,708 339,213 474,-921 729,-1134 254,-212 102,-181 0,-533 -102,-352 -526,-689 -543,-813 -17,-124 107,-282 136,-380 22,-79 237,-1922 271,-2153 34,-232 -179,-85 -179,-85l-414 362z"/>
  <path class="fil13" d="M34805 4320l0 0 0 0zm-343 947c-3,0 -7,0 -11,-2 -14,-5 -21,-22 -15,-36 125,-307 153,-341 199,-399 17,-21 37,-46 66,-92 47,-72 77,-105 97,-128 25,-27 32,-35 42,-90 15,-81 -56,-148 -74,-163 -15,-6 -21,-31 -61,-246 -33,-175 -172,-478 -340,-569 -82,-44 -176,-108 -177,-211 -1,-56 19,-107 38,-156l5 -13c98,-253 141,-527 170,-761 12,-97 14,-196 17,-292 3,-95 6,-194 17,-291 2,-16 16,-27 31,-25 16,2 26,16 25,31 -12,95 -15,192 -17,286 -3,97 -6,198 -18,298 -30,237 -73,515 -173,774l-5 13c-18,46 -35,90 -35,135 1,74 76,124 148,163 185,100 333,417 369,608 29,155 39,201 43,214 25,22 111,105 92,215 -13,68 -25,84 -56,118 -20,22 -47,52 -91,120 -31,49 -52,75 -70,97 -42,53 -68,86 -190,385 -5,11 -15,17 -26,17z"/>
  <path class="fil17" d="M36317 5332c-15,0 -27,-12 -28,-27 -1,-15 11,-28 26,-29l1599 -86c15,-1 28,10 29,26 1,15 -11,28 -26,29l-1599 87c0,0 -1,0 -1,0z"/>
  <path class="fil9" d="M39623 3958c136,552 71,1697 45,1892 -25,195 -144,289 -169,475 -21,152 -142,259 -187,294 -10,8 -24,10 -36,6 -190,-56 -1738,-519 -1754,-639 -17,-127 51,-305 93,-491 9,-38 16,-71 22,-103 24,-126 31,-221 38,-390 8,-212 149,-973 183,-1188 34,-215 68,-554 80,-871 11,-317 11,-396 0,-622 -12,-226 -46,-509 -80,-577 -30,-61 -153,-1361 -179,-1637 0,-3 0,-5 0,-8 3,-22 24,-39 47,-35 125,21 450,82 585,170 36,24 70,49 104,73 125,91 250,180 498,207 122,13 265,70 402,150 207,120 403,292 500,447 183,290 113,707 128,1032 10,240 -28,531 31,766 22,91 -487,498 -351,1049z"/>
  <path class="fil13" d="M38082 2995c-5,0 -11,-1 -16,-5 -12,-8 -15,-26 -7,-38 33,-47 21,-79 2,-133 -23,-66 -55,-157 -5,-307 42,-126 109,-228 168,-317 68,-103 127,-192 142,-300 12,-94 -26,-234 -62,-370 -46,-169 -89,-329 -42,-417 42,-80 132,-151 219,-219 77,-60 149,-117 171,-168 27,-60 -178,-282 -384,-453 -11,-10 -13,-27 -3,-39 10,-12 27,-13 39,-4 108,90 455,393 399,519 -28,63 -105,124 -187,189 -83,64 -168,132 -205,201 -37,69 5,225 46,377 38,141 78,287 64,391 -17,121 -82,219 -151,324 -60,91 -122,184 -162,303 -44,133 -18,206 5,271 21,58 40,113 -8,183 -5,8 -14,12 -23,12z"/>
  <path class="fil9" d="M39789 1091c45,96 614,680 672,1105 58,425 262,584 245,1116 -17,531 51,708 -187,974 -237,266 -237,496 -407,833 -170,336 16,496 -323,708 -339,213 -475,-921 -729,-1134 -255,-212 -102,-181 0,-533 102,-352 526,-689 543,-813 17,-124 -108,-282 -136,-380 -23,-79 -237,-1922 -271,-2153 -34,-232 179,-85 179,-85l414 362z"/>
  <path class="fil13" d="M38921 5587c-10,0 -20,-5 -25,-15 -1,-1 -51,-99 -168,-206 -19,-18 -38,-34 -56,-49 -99,-83 -184,-155 -153,-356 18,-114 53,-164 91,-218 38,-56 78,-113 110,-253 64,-281 479,-1372 496,-1418 6,-14 22,-21 36,-16 15,6 22,22 16,36 -4,11 -431,1133 -494,1410 -34,150 -79,215 -119,272 -35,51 -65,95 -81,196 -26,170 37,223 133,304 19,16 39,33 59,51 124,114 177,218 179,222 7,14 2,30 -12,37 -4,2 -8,3 -12,3z"/>
  <path class="fil17" d="M36949 8627c-15,0 -28,-12 -28,-28l0 -1646 -359 -301c-12,-10 -13,-27 -4,-39 10,-12 28,-13 40,-3l369 308c6,6 10,13 10,22l0 1659c0,16 -13,28 -28,28z"/>
  <path class="fil5" d="M37390 -494c-72,99 -182,184 -325,198 -294,29 -580,-243 -733,-411l4 -60c15,6 32,13 52,19 118,39 299,79 539,79 174,0 307,-37 403,-79l28 0 32 254z"/>
  <path class="fil12" d="M36830 -1595l-76 0c-8,0 -13,-6 -13,-13l0 -285c0,-7 5,-13 12,-13 7,0 13,6 13,13l0 273 64 0c7,0 12,6 12,12 0,7 -5,13 -12,13z"/>
  <path class="fil6" d="M36780 -1115c-58,0 -118,-11 -177,-32 -7,-3 -11,-11 -8,-18 3,-7 10,-11 18,-8 174,64 361,24 453,-97 4,-6 13,-7 19,-2 6,4 7,13 3,19 -68,89 -183,138 -308,138z"/>
  <path class="fil12" d="M35884 -1551c0,11 -10,20 -21,20 -11,0 -20,-9 -20,-20 0,-12 9,-21 20,-21 11,0 21,9 21,21z"/>
  <path class="fil12" d="M37850 -1544c0,11 -9,20 -20,20 -12,0 -21,-9 -21,-20 0,-12 9,-21 21,-21 11,0 20,9 20,21z"/>
  <path class="fil12" d="M35803 -1610c0,8 -7,15 -15,15 -9,0 -15,-7 -15,-15 0,-8 6,-15 15,-15 8,0 15,7 15,15z"/>
  <path class="fil1" d="M29705 -265l-480 571 -153 182 -1355 1613 79 -2249c186,-12 330,-165 330,-350l0 -756 962 35c13,87 26,173 39,260 2,15 5,30 7,44 0,2 0,4 1,7 7,49 12,108 18,170 0,12 2,25 3,38 22,222 70,464 332,448l217 -13z"/>
  <path class="fil5" d="M29153 -738c-65,113 -171,216 -316,232 -276,30 -545,-267 -678,-432 -14,-18 -25,-34 -33,-48l0 -19c22,13 54,30 101,47 106,39 269,79 486,79 157,0 277,-37 364,-79l50 -1c2,15 5,30 7,44 0,2 0,4 1,7 7,49 12,108 18,170z"/>
  <path class="fil12" d="M29584 -1445c0,0 1149,-125 681,-1562 -468,-1438 -1905,-1099 -1905,-1099 0,0 -1064,433 -1193,1344 -128,912 643,1162 643,1162l1774 155z"/>
  <path class="fil12" d="M29083 -4032c0,0 329,-555 202,-694 -127,-139 -287,-300 -608,-242 -321,57 -389,376 -359,482 31,107 110,318 215,490 105,172 550,-36 550,-36z"/>
  <path class="fil1" d="M27782 -2087c-65,690 310,1290 839,1340 528,50 1010,-468 1076,-1158 66,-690 -309,-1290 -838,-1340 -529,-51 -1011,468 -1077,1158z"/>
  <path class="fil12" d="M28582 -3417c0,0 397,801 1169,1234 771,432 76,-1099 76,-1099l-1245 -135z"/>
  <path class="fil1" d="M27490 -2164c0,158 137,310 249,310 113,0 204,-128 204,-285 0,-158 -149,-286 -262,-286 -113,0 -191,104 -191,261z"/>
  <path class="fil1" d="M29891 -2084c0,158 -136,310 -249,310 -113,0 -204,-128 -204,-286 0,-157 150,-285 262,-285 113,0 191,104 191,261z"/>
  <path class="fil12" d="M28257 -2194c0,61 38,111 84,111 47,0 85,-50 85,-111 0,-61 -38,-110 -85,-110 -46,0 -84,49 -84,110z"/>
  <path class="fil12" d="M29111 -2139c0,61 38,110 85,110 46,0 84,-49 84,-110 0,-61 -38,-111 -84,-111 -47,0 -85,50 -85,111z"/>
  <path class="fil12" d="M28482 -2449c-7,1 -14,1 -21,0 -188,-28 -304,29 -309,32 -31,16 -72,9 -91,-16 -19,-25 -9,-58 23,-74 6,-4 163,-85 407,-49 36,5 58,33 50,63 -7,23 -31,41 -59,44z"/>
  <path class="fil12" d="M29443 -2391c-7,-1 -14,-3 -20,-6 -171,-84 -299,-65 -304,-64 -35,6 -72,-13 -82,-42 -10,-30 9,-58 44,-65 7,-1 182,-30 403,78 32,16 45,50 28,75 -13,21 -42,30 -69,24z"/>
  <path class="fil22" d="M28768 -1753c-15,0 -29,-5 -40,-13 -36,-26 -38,-45 -34,-87l18 -177c0,-7 6,-12 13,-11 6,1 11,6 11,13l-18 177c-3,38 -2,46 24,65 10,8 23,10 35,8l45 -10c7,-1 13,3 15,10 1,6 -3,13 -10,14l-45 9c-4,1 -9,2 -14,2z"/>
  <path class="fil18" d="M28390 -1445c21,136 174,233 350,219 154,-12 276,-105 305,-219l-655 0z"/>
  <path class="fil22" d="M27727 -1953c14,9 19,26 11,41 -9,14 -26,19 -40,10 -15,-8 -19,-26 -11,-40 8,-14 26,-19 40,-11z"/>
  <path class="fil22" d="M29713 -1895c15,8 19,26 11,40 -8,14 -26,19 -40,11 -14,-9 -19,-27 -11,-41 9,-14 26,-18 40,-10z"/>
  <polygon class="fil1" points="30400,6383 29596,6730 29133,6242 30143,5514 30573,6315 "/>
  <path class="fil1" d="M25850 8314l181 -60c0,0 23,-32 -2,-73 -25,-41 -85,-40 -114,-37 -29,3 -89,26 -89,26 0,0 -71,-82 -143,-118 0,0 19,-100 -15,-165 0,0 74,-76 66,-188 0,0 8,-14 19,-34 10,4 28,12 40,19 16,9 18,64 11,96 -6,32 -13,135 -3,194 10,59 55,99 122,97 67,-3 69,-68 82,-127 13,-58 8,-112 3,-217 -5,-105 23,-158 43,-257 20,-99 12,-178 12,-178 -9,-83 -41,-183 -50,-209 10,-60 9,-116 -10,-158 -34,-75 76,-622 76,-622l-560 63 53 620c0,0 -176,367 -234,532 -58,165 -100,251 -92,333 0,0 85,330 172,403 90,75 289,206 348,210 62,5 229,-17 229,-17 0,0 37,-2 65,-17 0,0 27,0 6,-56 -21,-56 -78,-42 -216,-60z"/>
  <path class="fil24" d="M26822 254c0,0 -485,265 -555,639 -70,374 -304,901 -432,1121 -129,220 -293,671 -316,824 -23,154 -351,2364 -257,2891 93,528 21,938 201,1012 181,73 757,0 757,0l842 -5130 -240 -1357z"/>
  <path class="fil25" d="M30329 8725l-4648 0c11,-89 22,-182 35,-277 14,-110 30,-223 47,-340 11,-68 21,-137 33,-208l0 0c50,-314 112,-647 186,-993l0 0c5,-23 10,-45 15,-68 0,0 0,0 0,0 6,-24 11,-48 16,-72 1,-2 1,-4 2,-6 23,-105 48,-212 75,-319 15,-63 31,-127 48,-190 67,-259 141,-521 224,-785 0,0 0,0 0,0 15,-46 30,-93 45,-140 0,0 14,-13 51,-33 81,-45 276,-123 685,-163l0 0c1,0 1,0 2,0 200,-19 450,-29 763,-22 347,9 771,39 1288,101 0,0 28,99 77,257 44,144 105,336 177,547 65,194 140,404 218,606 9,23 18,45 26,68 103,258 211,499 314,673 150,254 255,800 321,1364z"/>
  <path class="fil24" d="M26407 3843c12,-117 76,-900 76,-900 0,-1 41,-1111 2,-1497 -24,-242 145,-719 274,-1041 22,-56 44,-106 63,-151l251 -103 862 -357c0,0 -172,1294 -78,1995 0,0 1371,-1434 1652,-2088 0,0 935,171 1169,140 234,-31 764,109 982,1746 218,1636 919,2493 951,2790 31,296 187,623 -187,997 -374,374 -998,951 -1076,1060 -78,109 -841,296 -841,296l-794 -1440c-26,-47 -6,-106 43,-127 134,-57 372,-161 439,-194 93,-47 693,-359 693,-359 0,0 -471,-639 -530,-1317 -26,-303 -38,-542 -43,-715 -7,581 -81,1796 -557,2422l-249 468 -3147 0c0,-1 -15,-99 0,-185 28,-157 34,-1324 45,-1440z"/>
  <path class="fil26" d="M25580 6777c-3,0 -5,0 -7,-1l-170 -46c-39,-11 -88,-58 -111,-326 -11,-134 -11,-266 -11,-281l-64 -758c0,-1 0,-2 0,-4l41 -652c1,-14 144,-1282 189,-1564 47,-295 118,-646 291,-1006 172,-358 461,-1079 464,-1087 5,-14 21,-21 36,-15 14,6 21,22 15,36 -3,7 -292,731 -465,1090 -169,354 -240,699 -286,990 -45,281 -187,1548 -189,1561l-40 648 64 757c0,1 0,2 0,3 -3,288 35,542 81,554l169 47c15,4 24,19 20,34 -4,12 -15,20 -27,20z"/>
  <path class="fil26" d="M26316 4947c-8,0 -15,-3 -21,-9 -9,-10 -88,-114 -99,-749 -12,-637 117,-1111 152,-1160 8,-12 26,-15 38,-6 13,9 16,26 7,38 -24,38 -153,493 -142,1127 11,601 81,707 86,713 9,12 8,29 -3,39 -5,5 -12,7 -18,7z"/>
  <path class="fil26" d="M27857 1817c-3,0 -6,-1 -9,-2 -10,-3 -18,-12 -19,-23 -1,-9 -95,-881 73,-1989 2,-15 16,-25 31,-23 16,2 26,17 24,32 -143,936 -96,1703 -78,1915 230,-233 1343,-1382 1604,-2037 6,-14 22,-21 36,-15 14,6 21,22 16,36 -295,739 -1603,2043 -1659,2098 -5,5 -12,8 -19,8z"/>
  <path class="fil26" d="M31348 6462c-6,0 -12,-2 -18,-7 -11,-10 -13,-27 -3,-39 3,-3 277,-328 794,-785l18 -16c179,-157 402,-354 471,-586 87,-289 24,-631 -184,-1016 -173,-319 -308,-664 -439,-996 -14,-36 -28,-72 -42,-108 -6,-14 1,-30 16,-36 14,-5 30,2 36,16 14,36 28,72 42,107 130,331 264,674 436,990 216,399 279,755 188,1059 -74,248 -303,450 -487,612l-18 16c-514,454 -786,776 -788,779 -6,6 -14,10 -22,10z"/>
  <path class="fil26" d="M30189 3924c-1,0 -3,0 -5,0 -15,-3 -25,-18 -22,-33 0,-1 16,-86 51,-299 34,-212 74,-1008 74,-1016 1,-15 14,-27 29,-26 16,1 27,14 27,29 -2,33 -41,807 -76,1022 -34,213 -50,300 -51,301 -2,13 -14,22 -27,22z"/>
  <path class="fil22" d="M28509 107c-41,0 -80,-5 -118,-15 -259,-72 -346,-370 -347,-373l14 -4c1,3 85,294 337,363 231,64 526,-74 877,-408l9 10c-297,284 -556,427 -772,427z"/>
  <path class="fil5" d="M20958 6649c0,0 291,87 348,100 0,0 -99,411 -304,511l-5 3 -39 -614z"/>
  <path class="fil6" d="M20706 78c0,0 76,-58 173,27 519,457 469,1251 462,1454 -7,204 179,947 277,1226 98,279 217,444 290,930 72,485 0,1445 8,1563 8,118 103,693 153,850 37,118 -6,475 -135,533 -130,57 -214,132 -689,73 -476,-58 -354,-216 -362,-436 -8,-220 -77,-416 -79,-513 -2,-98 -21,-283 -20,-528 1,-246 18,-151 -30,-388 -48,-238 -393,-1441 -268,-1737 125,-296 -343,-1289 -336,-1364 8,-74 -113,-755 -113,-755 0,0 103,-320 266,-548 163,-229 379,-356 403,-387l0 0z"/>
  <path class="fil24" d="M18923 4245l0 905 -19 914 -3 140c0,0 0,0 0,0l-54 2521 -2178 0 213 -2564 23 -285 7 -78 11 -139c0,0 0,0 0,0l46 -547 43 -526 29 -341 1882 0z"/>
  <path class="fil24" d="M21139 8725l-2178 0 -55 -2566c0,0 0,0 0,-1l-2 -94 -20 -914 0 -905 1884 0 110 1333 0 0 15 187 2 21 0 0 10 121 0 0 62 745 1 10 49 590 122 1473z"/>
  <path class="fil27" d="M16775 -934c0,0 -123,-772 178,-1168 301,-396 205,-736 205,-920 0,-184 55,-764 315,-976 259,-212 369,-679 1217,-509 0,0 219,-128 779,-57 561,71 794,807 821,962 28,156 82,481 219,637 137,156 274,509 178,863 -96,354 -100,425 32,750 132,325 64,418 64,418 0,0 -1601,657 -4008,0z"/>
  <polygon class="fil1" points="19531,-340 18196,-340 18332,-1272 18341,-1334 18360,-1465 19367,-1465 19388,-1318 19428,-1049 "/>
  <path class="fil5" d="M19428 -1049c-76,99 -189,183 -335,197 -304,30 -601,-247 -761,-420l9 -62c14,5 29,11 46,16 124,40 312,82 562,81 182,0 321,-37 421,-81l18 0 40 269z"/>
  <path class="fil1" d="M19957 -2666c0,851 -510,1540 -1139,1540 -629,0 -1139,-689 -1139,-1540 0,-851 510,-1541 1139,-1541 629,0 1139,690 1139,1541z"/>
  <path class="fil1" d="M18028 -2397c59,160 8,328 -114,376 -122,48 -268,-42 -327,-202 -59,-160 -8,-328 114,-376 122,-48 268,43 327,202z"/>
  <path class="fil1" d="M19761 -2397c-59,160 -8,329 114,376 122,48 268,-42 327,-202 59,-160 8,-328 -114,-376 -122,-48 -268,43 -327,202z"/>
  <path class="fil6" d="M18032 -2967c-24,0 -47,-15 -57,-39 -13,-33 2,-70 33,-84 296,-129 520,-9 530,-3 30,16 41,55 25,86 -16,31 -53,43 -83,26 -8,-4 -185,-96 -424,9 -8,3 -16,5 -24,5z"/>
  <path class="fil6" d="M19125 -2967c-24,0 -47,-15 -57,-39 -13,-33 2,-70 33,-84 296,-129 520,-9 530,-3 30,16 41,55 25,86 -16,31 -53,43 -83,26 -8,-4 -185,-96 -424,9 -8,3 -16,5 -24,5z"/>
  <path class="fil6" d="M18360 -2636c0,72 -45,131 -101,131 -55,0 -100,-59 -100,-131 0,-73 45,-132 100,-132 56,0 101,59 101,132z"/>
  <path class="fil6" d="M19467 -2636c0,72 -45,131 -100,131 -56,0 -101,-59 -101,-131 0,-73 45,-132 101,-132 55,0 100,59 100,132z"/>
  <path class="fil27" d="M18690 -4069c0,0 -670,958 -766,1455 -96,498 -643,342 -698,356 -54,15 329,-1584 329,-1584l1135 -495 0 268z"/>
  <path class="fil27" d="M18690 -4399l0 62 0 268c150,314 338,609 564,871 239,276 537,518 829,732 50,37 122,76 168,117 -41,-242 -116,-483 -162,-725 -41,-216 -67,-447 -134,-662 -21,-32 -1265,-663 -1265,-663z"/>
  <path class="fil6" d="M18118 -990c0,0 -62,122 -62,237 0,116 99,423 -161,436 -260,13 -1114,577 -1337,743 -224,167 -162,526 -162,526 0,0 459,4642 533,4719 74,77 1143,-1029 1542,-981 400,48 273,138 434,125 161,-13 223,-141 273,-134 49,6 216,38 297,96 80,58 390,-32 601,160 210,192 1052,833 1052,833 0,0 112,-910 -74,-1192 -186,-282 74,-2768 0,-2857 -74,-90 -136,-1589 -136,-1589 0,0 -784,-420 -1034,-430 -251,-9 -186,-615 -186,-615l-1580 -77z"/>
  <path class="fil6" d="M18818 -1603c-58,0 -119,-11 -178,-32 -7,-3 -11,-11 -8,-18 3,-7 11,-11 18,-9 175,65 361,25 453,-96 5,-6 13,-7 19,-2 6,4 8,13 3,19 -68,89 -182,138 -307,138z"/>
  <path class="fil6" d="M19896 -1616c-3,0 -6,0 -9,0 -71,-3 -131,-39 -167,-100 -2,-5 -1,-11 4,-14 5,-3 12,-1 14,4 32,54 87,87 150,89 67,3 131,-29 168,-82 56,-82 65,-202 21,-287 -31,-58 -82,-90 -145,-90 -6,0 -11,-5 -11,-10 0,-6 5,-11 11,-11 71,0 129,36 163,102 48,91 38,220 -22,308 -39,57 -107,91 -177,91z"/>
  <path class="fil6" d="M17737 -1616c-71,0 -138,-34 -178,-91 -52,-77 -57,-183 -11,-271 41,-78 115,-125 196,-125 6,0 11,5 11,11 0,5 -5,10 -11,10 -75,0 -139,42 -177,114 -43,81 -39,179 9,249 37,53 102,85 168,82 64,-2 119,-35 150,-89 3,-5 9,-7 14,-4 5,3 7,9 4,14 -35,61 -96,97 -167,100 -3,0 -6,0 -8,0z"/>
  <path class="fil6" d="M18825 -2175l-17 0c-55,0 -100,-47 -100,-104l0 -302c0,-9 8,-17 17,-17 9,0 17,8 17,17l0 285c0,48 37,86 83,86l0 0c9,0 17,8 17,17 0,10 -8,18 -17,18z"/>
  <path class="fil1" d="M18301 5420l-599 -364 42 -122c30,-43 63,-93 24,-129 -40,-38 -104,-47 -155,-21l-670 341 -473 388c307,303 535,326 673,291 15,6 29,13 44,19l514 198c47,24 107,13 138,-27 22,-29 35,-77 -61,-135l96 58c50,26 114,13 145,-30 29,-37 9,-94 -46,-135l74 36c54,29 125,12 154,-39 26,-44 6,-98 -41,-126l-106 -64 124 13c59,27 140,37 169,-18 25,-48 3,-104 -46,-134l0 0z"/>
  <path class="fil6" d="M16558 426c0,0 -1308,1239 -1430,1426 -115,176 -191,218 -271,281 -80,62 -56,113 -328,564 -203,336 -325,894 -185,1279 144,399 529,671 886,865 387,211 461,279 770,467 308,188 389,224 558,404 100,107 340,159 484,205 64,21 141,-50 160,-116l280 -950c0,0 -242,-597 -726,-840 -276,-138 -598,-283 -756,-422 -128,-113 336,-353 432,-436 79,-68 385,-343 439,-362 55,-19 218,-803 218,-815 0,-12 -531,-1550 -531,-1550z"/>
  <path class="fil28" d="M18832 7841c0,0 0,0 0,0 -16,0 -28,-13 -27,-28 1,-63 41,-1529 80,-1700 44,-194 396,-560 411,-576 11,-11 28,-11 39,0 11,10 12,28 1,39 -3,4 -356,370 -397,549 -37,166 -78,1674 -79,1689 0,15 -13,27 -28,27z"/>
  <path class="fil29" d="M16632 3020c-8,0 -16,-3 -22,-10 -9,-13 -7,-30 5,-39 163,-130 309,-288 432,-469 22,-31 42,-68 63,-107 51,-92 103,-186 180,-234 13,-8 31,-4 39,9 8,13 4,30 -9,38 -65,40 -114,128 -161,214 -22,40 -43,78 -66,111 -126,186 -276,348 -444,481 -5,4 -11,6 -17,6z"/>
  <path class="fil29" d="M17477 4521c-11,0 -20,-5 -25,-15l0 0c-1,-2 -85,-172 -270,-250 -199,-86 -257,-142 -259,-144 -11,-11 -11,-29 0,-40 11,-11 28,-11 39,0 1,1 56,53 242,133 204,87 294,269 298,276 6,14 1,31 -13,37 -4,2 -8,3 -12,3z"/>
  <path class="fil29" d="M20918 5151c-3,0 -5,0 -7,-1 -15,-3 -24,-18 -21,-33 1,-2 34,-147 -11,-411l-10 -57c-25,-142 -26,-147 -10,-222 7,-29 16,-70 26,-139 39,-245 -184,-1108 -186,-1116 -4,-15 5,-30 20,-34 15,-4 30,5 34,20 9,36 227,882 187,1139 -11,70 -20,112 -26,142 -14,64 -14,64 10,201l10 56c47,278 12,427 10,434 -3,12 -14,21 -26,21z"/>
  <ellipse class="fil30" cx="21186" cy="-4789" rx="16983" ry="5089"/>
 </g>
</svg>
